<svg xmlns="http://www.w3.org/2000/svg" viewBox="0 0 316.1 34.17"><g id="Layer_2" data-name="Layer 2"><g id="Layer_1-2" data-name="Layer 1"><path d="M63.2.94C62,1,60.8.93,60.41.47A9.85,9.85,0,0,1,63.2.94ZM25.72.63c1.05,1,4.37.54,7,.47C30.24.22,28,.73,25.72.63ZM50.34.78c-.78.14-1,.59-2,.63a13.13,13.13,0,0,0,3.91,0A5.66,5.66,0,0,1,50.34.78Zm-9.79.47c.2.36,1.56.07,2.24.16C42.63.86,41.16,1.16,40.55,1.25Zm128.68.48a3.27,3.27,0,0,0-1.4.15C164.14,1.94,167.89,2.38,169.23,1.73Zm27.13,1.88c1.67-.2.18.8,2,.78-.31-.19-.79-.29-.56-.78.8-.13.73.22,1.4.15A3.3,3.3,0,0,0,196.36,3.61Zm66.31.47c1,.56-1.18,0-.84.62a5.32,5.32,0,0,1,2-.15C263.87,4.13,263.4,4,262.67,4.08Zm-36.93,0a2,2,0,0,0,2,.31C227.33,3.78,226.45,4.36,225.74,4.08Zm-15.39.31c0,.4.94.31,1.68.31C212.3,4.14,210.93,4.48,210.35,4.39Zm24.9.31a4,4,0,0,0-1.68.16C233.58,5.1,235.65,5.2,235.25,4.7ZM313,7.84a3.06,3.06,0,0,0,2.8.47A5.49,5.49,0,0,0,313,7.84Zm-310.8,0c-.15.76,1.24.66,1.12,1.41C4.83,9,4,7.6,2.22,7.84ZM304.35,8c-.12.33.19.42.28.63.26-.17,1,0,.84-.47A2.6,2.6,0,0,0,304.35,8Zm-9.52,0a1.85,1.85,0,0,1-.83.16c.93,0,0,1,1.12.94C295.34,8.55,294.7,8.49,294.83,8ZM266.3,12.23c0,.29.93.1.84.47C268.35,12.45,267.2,11.81,266.3,12.23Zm4.76.15c-.5,0-.59.2-1.12.16-.06.27.48.41,0,.47C270.36,13.44,270.84,12.59,271.06,12.38Zm29.93.79c-.26-.34-2-.22-1.68.31,1.61-.1,0,1.15,1.4,1.41.16-.49,1.07-.55,2.24-.47.62-.35-.49-.52-.56-.94-.08.53-1.28.43-2,.63C300.44,13.69,300.28,13.18,301,13.17Zm2.8.94c.25.33.83.47,1.68.47C305.38,14,304.53,13.94,303.79,14.11Zm2.23.47h2.25C308.41,14,305.89,14,306,14.58Zm4.76.15c.7.51,1.93,0,2.52.32C314.07,14.36,311.27,14.65,310.78,14.73ZM252,15.05c-.79,0-.81.38-.84.78.28.1.29.36.84.31C252.66,15.59,251.47,15.77,252,15.05Zm-2,.31c-.21-.28-.51,0-.84,0,0,.37.48.46.28.94C250.75,16.26,249.37,15.47,250.08,15.36ZM8.93,16.14c.27.43,1.41.36,2.24.48C11.24,16,9.42,16,8.93,16.14Zm287.87,0a2.75,2.75,0,0,0,2.51.32A5.25,5.25,0,0,0,296.8,16.14Zm-49.52.32c-1,.11-.19.47,0,.78.79.13.73-.22,1.4-.16C248.46,16.74,247.36,16.88,247.28,16.46Zm23.5.47c-.2.42,1.32-.11,1.12.31-.6.31-2.23.63-1.4,1.26,1.1-.22,1.54-.81,2.8-.94C273,16.9,272.08,16.67,270.78,16.93Zm-38.33.47c.53-.07,1.69.21,1.4-.32C233.19,17,232.55,16.84,232.45,17.4Zm1.12.78c.5,0,.59-.19,1.12-.16,0,.59-.42.51.28.79-.08.21-.7.13-1.12.16,0-.29.34-.33.28-.63a2.57,2.57,0,0,1-1.12.16c.33.49.42,1.12,1.4,1.25-.67.6-1.48-.44-2,0-.44.72,1.16.29,1.12.78.81-.12.73-.74,2-.62-.82-.54.3-1,.56-1.41C236.3,17.91,233.47,17.22,233.57,18.18Zm54,1.26c-.26.16-1,0-.83.47a3,3,0,0,0,1.4,0C288,19.7,287.63,19.66,287.56,19.44Zm-58.18.47c.4.46-.23.53.28.94C230.21,20.54,230.57,20,229.38,19.91Zm14.54.31c.06.13-.11.15-.28.16.51.4-.12.47.28.94.82-.14.32-.24.28-.63,0-.15.34-.12.56-.16C244.64,20.34,244.4,20.21,243.92,20.22Zm-12,.31c-.67.68-2.23.85-2.8,1.57C230.45,22.17,233.43,22,231.9,20.53Zm30.49.47c-.5,0-.59.19-1.13.16,0,.39.54.49-.27.63-.11.37,1.27-.09.84.47.28-.1.29-.36.84-.32C262.87,21.46,262.38,21.37,262.39,21Zm47.84.47c-.65-.45-2.05,0-2.52.16C308.25,22,309.59,21.54,310.23,21.47Zm-30.5,1.26c0,.45,1.17.28,2,.31C281.42,22.72,280.62,22.7,279.73,22.73Zm1.68.94c-.21-.36-1.57-.06-2.24-.16C279.7,24,280.3,23.61,281.41,23.67Zm-2.52.15a1.87,1.87,0,0,1-.84.16c.15.44.41.82.56,1.25.73.08,2.21-.68,2.24,0,1,.17.44-.58,1.4-.46-.68-.47-2.15-.08-3.36-.32C278.87,24,279.36,24.14,278.89,23.82Zm29.65.16c-.73-.05-.91.22-.83.63.89-.09.86.29,1.39,0C309.1,24.3,308.34,24.41,308.54,24Zm-282.82.63c3,.84,6.84,1.32,9.51,1.88.7-.56-2.46-.29-2.52-.94C30,25.55,28.25,24.2,25.72,24.61ZM188,24.92c.25.5-.43.49-.84.63.84.37.78.26.28.78a9.38,9.38,0,0,1,2.24-.15c-.23-.45.39-.41.28-.79-.42.31-1.6.48-1.68-.16.07-.19.84-.2.84,0C189.79,24.82,188.8,24.78,188,24.92Zm-170.08,0c.28.47,1.68.31,2.51.47A6.36,6.36,0,0,0,17.89,24.92Zm270.24.31c.29.36,1.75.06,2.51.16C289.92,24.94,289.31,25.24,288.13,25.23Zm-80-.15a.69.69,0,0,0-.57.78,3.08,3.08,0,0,0,1.68,0C209,25.55,208,25.61,208.12,25.08ZM24.6,25.23c-.05.35.23.5.84.47,0,.34-1,.08-1.4.16.89.55,2.92.27,3.08-.47C26,25.49,25.5,24.78,24.6,25.23Zm237.23.95c.89.13.87-.25,1.4-.32C263.12,25.34,261.74,25.69,261.83,26.18Zm-17.63-.63c-1,.12-.34.85.56.78C245,25.83,244.32,25.85,244.2,25.55Zm14.55.16c-1.41,0-3.31-.19-3.92.31.07.27.49.36,1.12.31-.52.53-1.13.1-2.24.16.79,1.1,3.42-.41,4.2.63a2.94,2.94,0,0,0,2-.47C260,26.07,258.26,26.5,258.75,25.71Zm-.56.47a4.57,4.57,0,0,1-1.68.31c0-.22-.13-.34-.28-.47A2.83,2.83,0,0,1,258.19,26.18Zm51.47-.32c-1.07,0-1.29.53-2.51.47-.09.42.58.41,1.12.47.63-.51.24-.41,2-.31C310.22,26.18,309.46,26.29,309.66,25.86Zm-35.8.16c0-.34-1-.07-1.4-.16,0,.42.77.4,1.12.63C274.73,26.31,272.32,26,273.86,26Zm-30.78,0c-.27,0-.21.19-.28.31H242c-.11.38,1.27-.08.83.47.5,0,.59-.19,1.12-.15C244.17,26.14,243.2,26.32,243.08,26ZM39.71,26h-.56c.05.13-.11.15-.28.16.08.36,1,.29.84.78C40.66,26.63,39.81,26.5,39.71,26Zm197.78.16h-1.12c.86.31-.2.72,1.12.78Zm-21,0c.6.6,2.47.49,3.92.62C219.81,25.87,218.33,26.39,216.51,26.18Zm44.2.78a4.68,4.68,0,0,0,3.64-.31C263.18,26.48,260.83,26,260.71,27Zm-63.78-.47c-.09-.21-.7-.13-1.12-.16-.35.46-.15.72.84.79C196.61,26.72,196.11,26.63,196.93,26.49Zm-7.28,0c.47.31,0,.2,0,.63-.93.05-.3-.77-1.68-.47.07.59,1.21.58,2,.78.15.55-1,.38-.84.94,1.59-.34-.29,1.58,2.24.94,0-.45-1.19-.27-1.12-.78,1-.44,1,1,2.52.78a2.12,2.12,0,0,0-1.4-.78,2.33,2.33,0,0,1,1.12-.63c1-.07.84.47,1.4.63.71,0,1.08-.23,1.12-.63a6,6,0,0,0-1.4-.63,6.53,6.53,0,0,1-3.36.16c-.05-.39.43-.49.84-.63C191,26.46,190.35,26.47,189.65,26.49Zm61.27.16h-1.68c1.36.39.6.79,2.23.78C251.52,27,251,26.94,250.92,26.65Zm-30.22,0c-.1.26.22.29.56.31,0,.28-.34.33-.28.63.76-.33.7.35,1.68,0V27A7.38,7.38,0,0,0,220.7,26.65ZM131.46,27c-.93.17,0,.48-.55.94a2.58,2.58,0,0,1,1.11-.16C131.9,27.44,131.22,27.46,131.46,27Zm-105.18.16c-.66.26-2.39-.09-2.24.62a3.78,3.78,0,0,1,2.24.16C26.81,27.6,26.11,27.62,26.28,27.12Zm9.79.62h1.68C37.69,27.51,35.92,27.11,36.07,27.74Zm196.38,0a4.59,4.59,0,0,0-1.95.32C230.82,28.7,232.5,28.25,232.45,27.74Zm62.95.16c-.37.06-.44.28-.84.31.12.35,1.37.07,2,.16C296.44,28.05,295.28,28.33,295.4,27.9ZM282,27.9h-2C279.93,28.15,282,28.71,282,27.9Zm17.34.78a4.06,4.06,0,0,1,2,0C301.42,28.31,299.09,28.12,299.31,28.68Zm-143.23-.15c.15.53,1.35.24,2,.15A3,3,0,0,0,156.08,28.53Zm20.43,0v.62c.49,0,.58-.19,1.11-.15A1.21,1.21,0,0,0,176.51,28.53Zm-29.1.62a2.19,2.19,0,0,1,1.12.63c1.18,0,0-.24,0-.47,1.69.09,3.52-.14,4.48,0C151.51,28.52,148.75,28.86,147.41,29.15Zm7.83-.31c-.62.42-1.4-.22-2,.16C153.3,29.47,155.57,29.48,155.24,28.84Zm54,.16c-.52.06-.7.33-1.39.31.06.23.83.05.84.31C209.17,29.59,209.31,29.35,209.23,29Zm-117.77.78c.37.74,2.2,0,3.64.16C93.88,29.23,93.16,29.36,91.46,29.78Zm7.83-.31c-.59.15-1.24,0-2,.31C97.42,30.29,99.05,29.82,99.29,29.47Zm-66.86,0c.46.21.35.74,1.4.62C33.87,29.6,33.12,29.56,32.43,29.47Zm205.9.62c.23.32,1.47-.09,2-.15A1.57,1.57,0,0,0,238.33,30.09ZM153,29.62a7.49,7.49,0,0,1-2,.32C151.35,30.25,153.37,30.21,153,29.62Zm130.92.79c-1.87.31-3.82-.68-6.44-.47.31.17,1,.25.28,1.09,3.11-.21,4.53-.5,7.27-.15-.28-.52-.77-.93-2-.94A1.31,1.31,0,0,0,283.93,30.41Zm-8.12-.47a15.61,15.61,0,0,0-3.35.78,11.75,11.75,0,0,0,4.75.16C276.47,30.4,276.56,30.42,275.81,29.94Zm-125.6,0c-.59-.1-.74.14-1.12.15C146.31,30.19,149.38,30.58,150.21,29.94Zm-7.56.31c.94.36,3.08.06,4.48.16A9,9,0,0,0,142.65,30.25ZM311.06,31c-1.25.22.72,1.11,2.24.79,0,.18-.51.13-.84.16a2.4,2.4,0,0,0,2.24,0C313.72,31.25,311.24,31.92,311.06,31Zm-3.07.16a1.76,1.76,0,0,0,1.95.79C309,31.89,309,31.25,308,31.19ZM63.48,33.54c-.35.72,1.42.25,1.69.63C66.3,33.65,63.82,33.27,63.48,33.54ZM58.45,0c-.78.3,1.18.37,1.4.63C60.87.2,58.66.26,58.45,0ZM71.6.16c.54.22,1.32.78,2,.47C73.41.19,72.21.34,71.6.16Zm-53.43,3a22.25,22.25,0,0,1,5,0c.34-.72-1.89,0-2-.48s1.32-.19,2-.31c-.08-.32-1-.15-1.12-.47.2-.31,1.6-.5,1.68,0,.29-.1.29-.36.84-.31C22.41,1,21.07,1.84,19,1.25,18.43,2,17.21,1.77,18.17,3.14Zm117.49.47a.63.63,0,0,1-.28-.63c-1.17.32-1.13.92-2.24.16v.94c-.28-.11-.29-.36-.84-.32-.2.43.56.32.56.63a5.37,5.37,0,0,1-2.23,0c0-.34,1-.07,1.39-.16.13-.29-.38-.94.56-.78-.71-.48-3.28-.61-4.19-.47,0-.18.06-.28.28-.31-2.13-.31-7.55.45-10.36,0,0,.18-.06.27-.27.31,0,.18.51.13.84.16-.06.93-1.46.25-2,.78a1.21,1.21,0,0,1-1.12-.47c-.88.19-1.48.63-2.52.31-.36.39.82.65,0,.79.58.36.87-.76,2.24-.47.57.41.51.46,1.68.31-.3.88-2,.51-3.08.31-.15.35.53.23.56.47a14.47,14.47,0,0,1-3.08-.47c-.37.16-.55.43-1.12.47-.71-.21-.18-1,.84-.78,0-.18-.51-.13-.84-.16-.54-.06-.22-.61-1.12-.47-1,.56.64.57.56,1.1-.54.3-1-.8-2.23-.63.53.46.68.66-.84.63-.88-.2-.15-.32-.56-.78-1.84,0-3.16-.22-4.76-.32,0-.44.49-.67,1.4-.62.32-.18-2.24-.51-2.52,0-6.16-.63-13,.21-17.9-.79-1.52.54-4.16-.13-6.15-.47,2.09-.8,5.51,1,5.31-.31,1.35-.09,4.79.18,4.75-.16-5,.28-8.21-.4-11.19.47-.6,0-.88-.13-.84-.47-2.65.33-7.56.11-9.79.16,0,.47,1,.39,1.68.47-2.35.4-9.35.26-12.31.15-.86.16.32.42.29.63-1.4.3-3-.61-4.76-.63v.47a64.75,64.75,0,0,1-7-.31c.35.64,2.94,0,3.08.79-1.48.23-4.66-.32-6.43.47-2-.09-2-.49-3.92-.47-.32.55-.83,1-2.24.94,0,.92,1.32.17,1.68.78a10.48,10.48,0,0,0-2.52.31c.19-.16.65-.16.56-.47-2.33-.09-3.32.33-5.59-.31C27,3.73,28.4,4,28.8,3.61c.32,0,.23.28.28.47.85-.21,1.36-.7,2.51-.32-.29-1-3-.62-4.19-1.1A8,8,0,0,1,24,3.14a3.74,3.74,0,0,1-1.4.78c-.75.11-.54-.33-.84-.47-.84.1.27.33,0,.63-1.23-.45-1.11,0-2.23-.16,0-.27.2-.41.55-.47a24.19,24.19,0,0,0-4.75.63c-.23,0-.28-.16-.56-.16-.05-.34.23-.5.84-.47a11.29,11.29,0,0,0-4.48.78c-.62,0,.37-.39,0-.78-.55.26-.35,0-1.12,0-.05.44-.91.43-1.12.78a1.32,1.32,0,0,1-.84-.47A5.7,5.7,0,0,0,7,4.23c-1.3-1-4.35-.07-6.72-.62-.87.34.7.64.84.94a2.28,2.28,0,0,1,2.52.31,15.91,15.91,0,0,0,2.52-.31c.11.65.44,0,.84.78.86.12.53-.43,1.39-.31.06.5-1.22.25-1.12.78-1.18-.54-2.71.3-3.63,1.1.76.11.56-.32,1.12-.32.24.29.72.44.84.79-.09.33-.87-.23-1.12-.32,0,.26-.53.2-.56.79a3,3,0,0,1,1.95-.16c-.87,1,1.29.59,2,1.1,0,.28-.35.33-.29.63,1.59.15,2,1,3.08,1.41,0,.12-.28.15-.28.31-1.68-.75-2.89-.79-3.91-1.88-.69.13-.63.69-1.68.62a13.22,13.22,0,0,1,2,1c0,.15-.34.12-.56.15,3.26,1.67,7.51,2.79,9.79,5-3.39-.77-4.52-2-8.4-1.57,5.89,1.54,5.34,6,12,7.21-.61.57.64.58-.29,1.1a21,21,0,0,1,3.36.62.74.74,0,0,1-.56.32c.17.38,1.42.08,1.12-.32.81.14.32.24.28.63,1.16,0,1.09-.21,2,0,.2-.43-.56-.31-.56-.63a2.91,2.91,0,0,0,1.4.16c0,.27-.21.41-.56.47a6.21,6.21,0,0,0,2.24.31c-.52-.27,0-.54.84-.47.2-.42-.56-.31-.56-.62,1.18.07,1.17.81,1.4,1.41,1.62-.12,2.38.23,3.91.16.49.33,1,.27.56.78,6.54-.35,8.31.92,14,1.57-.19.47-1.63.23-2,.62a14.53,14.53,0,0,1,3.92.79c1-.12,1.3-.75,2.23-.16-2.23.13,1.57.61.57,1.41,1.9-.06,4.28.79,6.71.94.33,0,.24.29.28.47,2.74-.39,7.16,1.42,9.51.63.24-.08.32-.59.56-.63,1.84-.33,3.17.65,5.31.32.36-.65,2.92,0,3.36.31-3.06.09-7.75-.15-11.19.63,2.84.36,5.16-.55,6.71.31,1-.74,3.78-.25,5,.16.24-.1.72-.94.84-.16,1-.11.28-.52-.28-.63a3.39,3.39,0,0,1,.84-.62c-.42-.64-1-.23-2-.48,1.92-.79,3.25.73,4.76.16.94.14.13.29.28.79.81-.48,1.73.6,2.51.15.09-.41-.38-.51-1.12-.47-.38-.36.73-.59,0-.63.18-.59,1.18.18,1.12-.62-.76-.12-.56.31-1.12.31-.3,0-.19-.31-.55-.31,1-.55,1.9-.6,3.91-.79-.42.52,2,.62,2.24.63.27-.57-1.1-.22-1.68-.31.31-.56,1.69-.52,1.68-1.26.82.14-.36.4,0,.79.69-.09,1.47-.1,2.52-.32-.81-.44.42-.42.56-.78a1.56,1.56,0,0,0,1.4.31v-.47c1.06.4,2.37-.17,3.35-.31.29.1.29.36.84.31-.45.95.45,1.28,1.12,1.88.34-.24,1.24-.42.56-.78,1-.06,1.57.65,2.52.16,1.25.22.3.75,1.12,1.09.66-.81,3-.56,3.91-.62.63-.07,0-.83.56-.94,1.14.29.8.47,1.4.94,1.11-.57,1.18.06.84.62.38-.2,1-.2,1.12.16,0-.64,4.38-1,4.76-.31.6-.15,1.7-.44,1.11-.79a18.53,18.53,0,0,0,2.24-.15c-.06.27-.48.35-1.11.31-.59.19,1.43.23,2,.31.14-.33-.4-.29-.84-.31a4.91,4.91,0,0,1,3.92-.63c0,.41-1.2.17-.84.79.88.07.74-.42,1.4-.47-.85.42,1.55.44,1.68.31-.39-.25-1.38-.17-1.68-.47,0-.54,2.38.07,1.68-.63.63,0,1.05,0,1.12.32a3.69,3.69,0,0,0,.84-.63c.4,0,.09.47.56.47.9.14.38-.52,1.12-.47-.55-.55-1.41-.11-2.52-.16.29-.44,1.1-.19.56-.78a4.06,4.06,0,0,0,2,0c-.19-.57-1.12,0-2.25-.16-.08.32-.55.42-.83.63-.18-.41.19-1.08-1.68-1.1.18-.16.64-.16.56-.47A20.35,20.35,0,0,1,129,27c.05-.44-1.21-.45.28-.47a.71.71,0,0,0-.28-.78c.94-.06.44.69,1.68.47-.36.23-1.15.47-.56.78,1.83-.44,1.88,0,3.91-.31-.14.23-.41.39-.56.62-.35,0-.28-.31,0-.31-.19-.39-.85.23-1.12.31,1.36.66,1.78-.79,2.8,0-.1-.2-.49-.24-.56-.47,1.32.27.26-.09,1.12-.47.5.14.36.64,1.4.47-.28-.58,1.9,0,3.64-.15a1.66,1.66,0,0,1-1.12.31,3.94,3.94,0,0,0,2,.31c-.47.26-1.14.41-1.12.94,1.64.27,1.42.77.84,1.41a5.83,5.83,0,0,1,2.79-.15c-.51-.28,0-.55.84-.47,0-.67-1.47.23-1.95-.32.81-.17,2.72-.6,2.51.32.74.05.72-.33.84-.63-.4,0-.79,0-.84-.16.39-.35,2-.06,2.8-.15.12-.93-1.49-1.29-2.52-1.1a.75.75,0,0,1,.56-.94c.58,0,.08.69.56.78.88.08.79-.39,1.12-.62.34-.05,1,.45.28.47.05.17.28.08.28,0h.84a.63.63,0,0,1-.28-.63c.9.15.68.44,1.12-.16.6,0,.13.56.28.79.54-.22,1.52-.19,1.4-.79,1.67-.08,2.73,0,2.51.63-.86.12-.53-.43-1.39-.31.27.92-1.78.94-2.25,1.41,1.39.09,1.8-.46,2.81-.16-.18.79-.52.78-.56,1.41a5,5,0,0,1,2.23-.31c-.69-.47.91-.65,1.4-.94-.59,1,2.22.22,2.52,1.09.88-.11.36-.42.28-.78.06.54,1.87.1,2.24.47-2,.07-2.14.78-4.76.63,0,.28.34.33.28.62.89-.54,2.71.21,3.92.16.44-1.62,2.57-2.56,5-1.41,0-.61-.94-.72-1.39-1.1.33-.64,1.09-.8,2.23-.62.79-1.54,4.39-.45,6.72-.47.4,0,.09.46.55.47-.26.42-1.52.29-1.11,1.09.86-1,3.87-.81,4.19.47h2c.06.61-1.3.42-1.11,1.1.72.06.84.47,1.67.47a5.72,5.72,0,0,0,1.12-.63c.33,0,.24.29.28.47.65-.27,1.74-.18,1.12-.78,1.14-.12.05,1,1.4.78.07-.45-.64-.48-.57-.94s1-.07,1.4-.15c.59,0,.08.69.56.78h1.13c1.1-.63-.56-1.81.27-2.35-.07-.37-1.22-.09-1.4,0,.21.46,1,.6.85,1.25-1.42,0-1.84-.54-1.68-1.41-.62-.1-.89.45-.84-.15-.67-.07.15.71-.84.47-.48-.64,0-1.52.55-2,.68-.06-.15.71.85.47-.19-1.11-2.08-1-3.36-.47.36.58,1.3.84,1.4,1.57,0,.35-.71-.21-1.4,0,1.1.35,1.19.76.84,1.56a3.09,3.09,0,0,1,1.12.16c.08.41-1.09.12-.84.63-.35-.61-1.74.17-2.24-.47.08-.15,1-.53,1.12-.16,1-.11-.87-.89.56-.78-.07-.51-1.48-.18-1.68.15a5.22,5.22,0,0,1-2.24-1.56c.54-.4,1.61.23,1.68.62a2,2,0,0,0,1.4-1.41c-.37-.26-1.59-.05-2-.31,0-.31.77-.2.56-.63-1.22-.13-1.24,0-2.24-.16.07-.27.49-.35,1.12-.31.09-.36-.81-.17-.84-.47.39-.25,1-.38.84-.94,1.37-.4,2.84-.78,3.64-1.1.57.05.56.42.84.63,1.34-.61,1.43.16,2.23.63,1.57-.22,2.21-.36,3.36.15.63-.43,0-1.13-.28-1.56-.73.66-1.94-.56-2.79,0,.33-.65,1.51-.83,2.23-1.26a12,12,0,0,0,1.12,1.26c.66-.05.52-.55,1.4-.47-.72-.65-1.2.31-2-.32a3.85,3.85,0,0,1,2-.47c1.21.12-.41.85,1.12.79.2.42-1.32-.12-1.12.31-.08.64.39,0,1.12.16-.86,1,2.28,1.35,1.68,2.19.78-.24,2.37,0,2.52-.63.61,0,.89.13.84.47a21.76,21.76,0,0,1-2.8.47,4.53,4.53,0,0,0,3.08.63c-.88.86.84-.3,1.11.63-2.19.59-3.09-.14-5-.47.73.66-.23.64-.56,1.1.93.28,2.35-.41,2.52.47,1.36.1,2.88-.89,3.07.31.66-.82,2.18.35,2.8,0,.13.6-.72,1.12,0,1.57.35-.54,1-.9,1.4-1.41,2.08.17,2-.27,3.64-.16.89-.55-1.27-1.12.56-1.26-.27-.31-1.07-.33-2-.31-.19.58.6.6.56,1.1-.48.21-1.48-.63-2-.94-.44.07-.24.49-1.12.31-.7.21,1.47.1,1.12.63-1.48-.11-4.47-.73-5.59-1.57,1.34-.28.91-.6,1.95-.94.46.22-.72.65.28.94.58-.42.51-.46,1.68-.31.28-.47-.62-.28-1.12-.32-.11-.49,1.51-.81,1.68-.62.41-.4.46-1,1.68-.94.1.47-1,.26-1.12.62.6.69,2.19-.1,3.36.32a10.35,10.35,0,0,1-1.4.94c2.06.09,4.57.67,6.71.94.41.59-.76.3-.56.78.49,0,.73-.26.84,0,.73,0-.38-.27,0-.63,1.65-.16,1,.37,1.4.63,1.15.05,0-.82,0-1.09-.85-.12-.82.26-1.68.15.3-1.25,2.51.31,2.8-.94a3,3,0,0,0-1.4.16c.31-.54,2-.47,2.8-.32-.52-.56.25-1,1.12-1.25a67.52,67.52,0,0,0,7.27,0c.51-.12-.17-.17-.56-.16-.57,0-.06-.69-.84-.62-.76.56-1.52.42-2.8.15,1.11.44-2.78.56-2.51,0-.33.3-2.09.6-2-.15a8,8,0,0,1-3.08-.16,2.38,2.38,0,0,1,1.12-.63.7.7,0,0,1,.56.63c.41,0,.89-.66.84,0,1.19-.18,2.56-1.06,3.08-1.1.85-.19-.3-.54,0-.94-.65.06-1.31.1-1.12.63-.8-.36.39-.92,0-1.57-.74.05-.92-.22-.84-.63-.65-.13-1.2.55-1.4.16-.86.2.31.47.56.16v.31c-.07.08-1.48.36-1.68-.15.74-.09.27-.21.56-.79a4.12,4.12,0,0,0,2.8-.63c-.24-.45-.42-.17-1.12-.15.37-.47.29-.8-.28-1.1.75.2,1.33.25.84.79.78-.2.45-1,1.68-1,.31.3.7.55.84,1-.42.51-.33-.53-1.12-.32.35.51-.91.12-.56.63,1.27-.67,1.05,1.36.28,1.41.75-.26,1,.28,1.68.78,0-.48.94-1.4.56-2,.15-.35.43.19.84-.15-.05.61,1.32,0,1.12-.79h1.67c.05.4-.43.5-.84.63.28.21.76.31.84.63.68.06.61-.29,1.4-.16.35-.89-1.45-.78-1.4-1.88a6.38,6.38,0,0,0,2,.78c-1.53.71,1,.31.84,1.1.61,0,.89-.13.84-.47a4.62,4.62,0,0,0,2.52.31c.13-.49-.51-.55-.28-1.09,1.56.5,1.8-.11,3.64.15-.55.17-1.15.3-.84.94a27.24,27.24,0,0,1,3.91-.31c-.44-.58-2-.28-2.51-.47.09-.52,1.61-.24,2.51-.31,0-.4-1.09-.23-1.12-.63.41-.46,1.09.21,2,0-.95.23-.44.8.84.63.1.31-.06.49-.56.47a1.66,1.66,0,0,0,2.24.47c.37.3-.08.56.84.78-.5.25-1.49.21-1.12.94.66-.09,1.3-.24,1.4.32-.54.48-1.42-.14-1.68-.32-.59.67.77,1-.84,1.41a1.21,1.21,0,0,0,1.12.47c.11.38-.51.34-.28.79-.84-.23-1.71.55-1.68-.16-.86,0-.86.56-1.4.78,1.64.08,5.34.78,3.92-.78a2.6,2.6,0,0,0,1.12.16c.14.65-.64.79-.84,1.25a119,119,0,0,1-13.15-.16c.28.61-.46.14-.84.94.9-.2,2.68-.62,2,.32,1.51-.56,2.91,0,4.2-.16.44.41,1.35.55.84.78.63.3,1.08-.37,2.23,0,.45-.52,1.12-.73.28-1.25,2.16-.57,3.66.8,6.16.94.2-.91.71-1.22,2.23-2.19h1.4c.2.42-.58.3-.84.47,0,.19,1.58,0,2-.16-.55.74-1.8,1.08-3.63,1.1.58.54,1.33,0,2.23.31a2.27,2.27,0,0,1,2-.63c-.24.39-1,.47-1.4.79-.2.42,1.32-.11,1.12.31.72,0-.38-.27,0-.63,2,.82,6.29.35,8.11,1.26.79-.24,1.85-.33,1.68-1.1,1.84,0,3.16-.21,4.76-.31.24.07.5.14.56.31-.08.33-.75-.23-1.12.16.41.84,1.66.61,2.8.78.25-.5-.92-.22-1.12-.47.05-.13.28-.15.27-.31,1.42-.16,2.32-.68,3.64-.47,0,.47-1.32.2-1.67.47,0,.22,0,.44-.28.47,1.53.94,4.64,0,5.87,1.09,1.67,0,1.73-.1,3.08-.15.1.27-.22.29-.56.31.12.35,1.38.07,2,.16.08-.26-.27-.27-.28-.47-.17-.1,1.93-.16,1.67.31.78-.1-.77-.82.84-.62-.18-.16-.64-.17-.55-.48a7.56,7.56,0,0,1-2,.16c.36-.72.13-.84,1.12-1.1-.09-.21-.7-.13-1.12-.15.67-.39,1.48-.09,2-.32,0-.44-.8-.39-1.12-.62.07-.55,1.23.28,1.12-.16.58,0-.41.42.28.63.6-.13.23-.81.83-.94,0-.4-.93-.31-1.67-.32,1.21-.72,2,.12,3.35-.62-.24-.12-1.61,0-1.68-.63-.22.39-1.27.33-2.23.31-.55-.22-.54-.74-1.4-.78.48-.51.73.41,1.68.16-.8-.45.16-.71.84-.79-.48-.56-.46-.87.28-1.1a1.57,1.57,0,0,0-1.68-.31c-.11.27.22.3.56.31-.24.41-1.23-.3-1.68.16,0,.27.21.41.56.47-.95.54-4.83-.21-4.2,1.26-2,.68-4.77-1.21-5.87.47-.7-.25-.12-1.1,0-1.41.53-.07,1.68.21,1.4-.32.86.09.73.74,1.67.79-.4-.75,1.17-.39,2-.47v-.79c-1.27-.56-1.93.2-3.08-.16,1.44-.47-.75-.27-.27-1.09.85-.12.82.27,1.67.15-.28-.47.63-.27,1.12-.31-.12-.3-.6-.39-.55-.78,1.24,0,1.07.75,1.39,1.25.89,0,1.24-.35,2.24-.31-.39-.39-1-.28-1.68-.16s.26-.88-.84-.63c.17-.37,1.72,0,2-.31.38.15.36.53.84.63,1.08-.18,1.1-.48,2-.47-.3-.31-.2-.83-1.4-.63-.1-.27.22-.3.56-.31,0-.34-.71-.34-1.4-.32.67.31.64.79-.28.94-.21-.5-1.05-.54-1.68-.15-.72,0-.4-.61-1.12-.63.3-.27,1.55.14.84-.47,1,.06,2.48,0,1.68-.47-.27,0-.22.19-.28.31-.46.07-.46-.85,0-.78-1.11.29-2.4-.35-3.36-.31.07.27.48.35,1.12.31-.08.37-.54.65,0,.94-.48,0-.72-.12-.84-.31-.24,0-.26.06-.28.15s-.11.15-.28.16c0,.4.21.19.56.16,0,.45-.35.74-1.4.62.23-.47.79-.37.29-.94a1.2,1.2,0,0,1-1.4.16c.55-.37,2-.23,2.51-.63-.63-.37-2.79.11-2.79-.62.47,0,.69-.25,1.68-.32-.13-.3-.81-.28-.57-.78-2.77.14-3.81-.3-5.59-.16-.27-.47,2.47-.54,1.68-.31a45.32,45.32,0,0,1,6.15-.47c0,.28-.34.33-.27.63a2.39,2.39,0,0,1,1.95-.16c0-.42.88-.34.84-.78-.45.51,1.42.66.84,1.09.09-.08,2.17-.23,2.24-.47,3.57,1.26,7.66,0,12.3.94-.08.22-.69.13-1.11.16.93.69,4.3-.3,4.75.94-1.7-.49-3,.19-4.47.31,1.22.47.53,1.07,0,1.73-.53-.35-1.48-.13-2.52-.47-.83-.14.65-.24.28-.63-1.13,0-2.66.13-2.52-.63a15,15,0,0,1-3.92-.31c-.08-.41.39-.51,1.12-.47s-.15.71.84.47v-1.1c-1.21,0-1.55-.27-2,.32-.22-.4-1.27-.33-2.23-.32.41.48-.1.61.28.94,1,.15.23-.7,1.11-.62,1,1.27-.49,1.61-3.07.94a10,10,0,0,0,1.4,1.25c.41-.08.7-.23,1.12-.31.37.15.55.42,1.12.47.13.39-1.39-.44-1.12.31a4,4,0,0,0,1.67-.16c-.38.31-.26.9-.55,1.26a1.14,1.14,0,0,0,1.11-.79,17.73,17.73,0,0,0,3.92.47c.7,1,2,1.05,3.64,1.26.08.25-.27.27-.28.47a5.88,5.88,0,0,0-2.52-.16c-.65-.23-.42-.38-.28-.78a9.51,9.51,0,0,0-1.68-.31c-.07.65-.77.95,0,1.72-.34.48-1.07-.23-1.4.16.42.38,1.48.17.84.78H280c-.94.33.68.53,0,.63,1.05.42,2.05.08,3.08.31-.15-.56,1.39-.4,1.4-1.25.74,0,1.65-.09,1.68.31.6,0,.12-.56.27-.78-.79-.14-1.72-.19-2.51-.32.71-.65.26-.76,2-.94a10.75,10.75,0,0,0-3.36-.31c-.35-.07-.58-.2-.56-.47,1.37-.06,5.91-.08,8.39.78.65-.61,0-.83-.28-1.41-.2-.42,1.32.11,1.12-.31.89.43.57.86.84,1.56a3.18,3.18,0,0,1,1.4.16c-.62.68-1.15.36.28.94-1,.27-3.23-.17-3.64-.78-1.61,1-4.23-1.08-4.47.62,2.6,0,2.79,1.63,3.64,2.36,0,.34-1.19.06-1.69.15.15.39.75.53.84.94h2.24c.08-.64-.58-.08-1.12-.15.15-.48,2-.52,2.52-.32-1.52.89-4.45.8-5.87.32.44-.24.31-.7-.56-.63.17.15.65.58-.28.47s.16-.5,0-.78a17.13,17.13,0,0,1-2.8.15c1.85.6-.64,1.28-2,.94,0-.34.7-.33,1.4-.31-.59-.85-2,.16-3.64-.31,1.45.55-.51.82-1.12.78.24.66-.34.85-.84,1.1.23.51,1-.78,1.4-.16.7-.24,1.28-.54,1.4-1.1,1.72-.19,2.3,1.8,3.92.63.74-.05.92.22.84.63-.23-.07-1,.48-1.4.15-.08.36,1,1.15,2.51.79-.34-.6-1.14,0-2-.32,1.21-.69,2.46-.05,4.19-.15.57-.28-2.1-.07-1.95-.63A3.87,3.87,0,0,0,287,22.1c.59.56,1.82.69,1.68,1.25,2,.13,3-.09,4.48.16-.6.13-.65.58-.56,1.1a3.89,3.89,0,0,1,2.52.62c.11.38-1.28-.08-.84.48a5.27,5.27,0,0,1,2,.15c-.18.47-.59-.15-1.11,0s1.57.51,1.68,0c-.24.41,2,.48,1.12,1.26,2.25,0-.69-1.1,1.67-.94-1.64-.74-2.69-1.78-4.76-1.57v-.32c1.16-.19,2.42,0,3.36-.31-.12-.19-.35-.32-.83-.31.34-.43,1.07-.39.56-.94.47,0,.72.26.83,0,.52,0,.17.53.56.62.26-.32.16-.69,1.4-.78.27.58.34-.12,1.68.16-1.61.36,1.27.54,0,1.09,0-.64-1.16-.53-2.24-.62.07.27.48.35,1.12.31,0,.35-1.18.07-1.68.16a.9.9,0,0,1,0,1.41c.76.53,1.09-.23,2.52.15.13.31-.86.68.28.63-.25.6-1.12.12-2,.16-.34.51.91.12.56.63,1-.53,4,.06,4.48-.79-.5.29-.71-.13-1.68,0v.32a1.47,1.47,0,0,1-.56-.47c.76-.47,1.85.2,3.08,0-.15-.44-1.35-.29-2-.48.55-.17,1.31-.39,0-.46.72-.19,3.21,0,3.08.78a16.56,16.56,0,0,1,2.23.16c-.23-.53-4.27-1-2.23-1.26-1.14.05-2.19-.75-3.08-.16-.89-.35-.41-.67-1.12-.94.82-.67,3.39.19,4.48-.15-.59-.3-1.45-.19-.84-.79-1.05-.17-1.28.15-1.68-.31-1,.27.7.32.56.63-1.25-.09-1.48-.27-2.24-.32.29-.57.16-.65.84-.78-.09-.21-.7-.13-1.12-.16,1-.29,2.55.09,2.79-.47a35.48,35.48,0,0,1-5.59-.15c-.33-.42,1.35-.41,0-.47.09-.22.7-.13,1.12-.16-.33-.7-1.59-.89-2-1.57-1.19.6-.73-.21-1.4-.15-.11.21,0,.66.85.78-.9.49-2.43-.83-2.24-.94-.45-.14-2.34-1-2.24,0-.95-.36-.65-1.41-1.68-1.72.36-.44.58.49,1.4.31a1.36,1.36,0,0,1,1.12-.63,5.31,5.31,0,0,0-1.68-.16c-.35-.5.9-.12.56-.62-1.35.07-2.31-.06-2.52-.63-1.61,0-2.38.52-4.48.16.06-.13.28-.16.28-.32,1.15-.58,2.89.32,3.92-.47.91.13,2.48.93,2.52-.15h-1.68c.06-.73,1.54-.06,2.24-.16A3.46,3.46,0,0,0,294,15.2c.57-.2.51-.76,1.68-.62.22,0,.84.52.28.47.36.39,1.35-.17,1.12-.63,1.31-.29,2,0,2.51-.63-1.81-.37-3.29.37-3.63-.62,1-.05,1.91.44,2.51.15.25-.5-.92-.21-.84-.62s1.07.22,1.12.47c.28-1.27,5.32.08,7.27-.94.76-.11.55.32.85.47.49-.35,1.57-.46,1.67.15a23.07,23.07,0,0,1,3.64-.15,4.91,4.91,0,0,0-2.24-.63c1.82-1.18,5,.47,6.16-.16a31.39,31.39,0,0,0-4.76-.47c-.24-.5.43-.49.84-.62-1-.27-2.75.26-2.79-.79-1.19.2,0,.64,0,1.1-1.63-1.07-2.47.45-4.2.16-.11-.38,1.27.08.83-.47-1.08-.33-2.7-.37-3.07-1.1-1.53-.13-1.26.76-2.52.78-.32-.45-.34-1.06-2-.78.5-.87-.38-.61,0-1.41.12-.31.8.25.57-.47,1-.17.79.39,1.67.31a3,3,0,0,1,2-.63c-2.67-.62-4.95.23-7.55.16a4.3,4.3,0,0,0,2.8,0c.61,0,.11.67.27.94a2.18,2.18,0,0,1-.83.31c.06.23.83.06.83.32.22.35-1.39.56,0,.63-.14.43-1.35.28-2,.47-1.53-.91-3.58.18-5.59-.63.12.53-.84.47-1.12.78.17.54,1.55.39,2,.79-.42.67-1.75-.08-3.08.15,0-.28.35-.33.28-.62-.76,0-.3,1-2.24.78.75-.49,1.49-.73.56-1.41.34-.39,2.05,0,2-.63-.61,0-1.81.43-2,.16.07,1.82-3.49,1.7-5.87,1.72-.23,0-.28-.16-.56-.15-.27-.73,1.67-.22,1.4-.94-3.12.23-5.24-1-7.28.15-1-.14-.17-.46-.27-.94,2.47.18,2.4-.11,4.75,0-.19-.41-1.27-.33-1.4-.78.24-.26,3.9.53,3.36-.63A17.55,17.55,0,0,1,274.69,8c.55-.49,1.32,0,2-.47.61.54.79.58,2.24.47-.08-.32-.75-.3-.84-.62,1-.1.83.48,1.68.47-.06-.51,1.22-.26,1.12-.79.69,0,.87.3,1.4,0,.61,0,.13.56.28.79-.08.33-.75-.23-1.12.15.3.46.85.52,1.68.32a.56.56,0,0,0-.28.47c-.79.13-.73-.22-1.4-.16,0,.51,1.27.34,2,.47-.05-.39.62-.38.84-.63-.09-.36-1.22-.15-1.4-.47.36-.07,1.33-.58,1.4-.31.83-.1-.27-.33,0-.63-.69.6-2.65-.5-1.12-.62,0-.35-1.19-.07-1.68-.16.08.32.76.31.84.63h-.84c-.78-.16.41-.42-.28-.63a19.8,19.8,0,0,1-3.36.94c-.47-.22-.86-.91-1.68-.47-.92-.25,0-.59-.56-.94-.34.07-.57.2-.55.47-.5-.14-.36-.64-1.4-.47.25-.57.82-.1,1.68-.16-.67-1.23,3.22-.44,3.35-.47.84-.1-.27-.33,0-.62-1.65,0-3.32.08-3.63-.63-1.53.68-2.15-.3-4.2-.16,1,.66-3.24.32-3.91.47-.22,1.15-2.7.71-3.92.63-.28,1.28-2.17.22-3.36.78-.39-.15.12-.26-.56-.47-1.2.58-3.67.38-5.6.16,1.59-.32,2.67.16,4.2-.16-.14-.49-1.78-.15-1.68-.78-.67-.07-.61.29-1.39.16,0,.18.5.13.83.15a61.93,61.93,0,0,1-9.23-.15c0-.34,1-.08,1.4-.16,1.06-.31-1.44.1-.84-.47-.64.43-.93.1-2.24.16,0,.49,1.56.06,1.12.78a5.1,5.1,0,0,1,2,.16c0,.29-.95.09-1.12.31,0,.45,1.58.37,2,.16-.07-.17-.56-.11-.56-.32.56-.55,1.28,0,2.52-.15-.41.71-1.83.85-2.52,1.41a12.93,12.93,0,0,0-2.8-.32c-.31-.2-.44-.87-1.12-.94-.23.45.4.41.28.79-.68.47-1.82-.12-2.79,0,.55-.56,1.28,0,2.51-.16a6.3,6.3,0,0,1-2.51-.94c.18-.47.59.15,1.11,0,.32-.42-1.74-.53-.27-.63-.29-.61-1,0-2-.15.07.32,1.23,0,1.4.31-1.4-.22-2.45.78-3.08.47-.76.24.45.68.56.94-2.43.93-4.5.2-7.55,0,1.11-.23.51-.34.28-.94a5.65,5.65,0,0,0-1.68.31c.18-.93-2.49.28-3.92-.47-.94,1-2.21.64-3.36.94,0-.5.63-.69,1.68-.62,0-.14-.11-.15-.28-.16s.11-.15.28-.16a6.27,6.27,0,0,0-2-.15,5,5,0,0,1,1.12-.47c-.48-.36-1.57.25-2.52.15,1.09.22.79.49.28.94.78,0,.51.64,1.4.94-.24,0-.26.06-.28.16-1.33-.84-2.6-.76-4.75-.78.12.19.36.32.83.31-1.79.14-6.88.34-8.39-.47-.71,0-.34.12-.28.31h-1.39a.73.73,0,0,1,.55-.31,22.18,22.18,0,0,1-2.51-.16c-.91.18.75.18,1.12.16-.56.47-2.17.35-3.08.63-4.49-1.74-9.93-.7-14.55-1.1-.08-.41,1.08-.12.84-.63a7.86,7.86,0,0,0,3.36.16c0-.3-.93-.11-.84-.47.4-.24,1.46,0,2.24-.31-.6-.89-1.23,0-2.52,0-3.17-1-7.1-.09-10.35-.47.93.31.22.33-.84.31,0-.15.34-.12.56-.16-1.85-.35.11.71,1.68.32.2.13.25.62.56,1.09-1.81,0-5.17.76-6.44-.15-.41.06.11.2,0,.47-.73-.22-1.68-.31-2.52-.47.39-.6.91-.41,1.68-.79.14-.54-1.36-.17-1.4-.62.59-.47,1.48.2,2.52,0-.68.31-.28.24-.55.78a3.53,3.53,0,0,1,1.95-.47c-.15-.23-.41-.4-.56-.63-4.93-.27-11.3-.72-15.66,0-.5-.09-1.17-.08-1.4-.31-.5.11,0,.28,0,.47-3.08.77-9.54-.42-13.15.47.07.17.55.1.56.31-2.41,0-2.65,1.51-5,1.1.1-.42.73-.53,1.4-.63-.25-.8-2.07-.72-3.35-.94-1,.38.08,1-.57,1.57-.61,0-.6-.39-.55-.78-.66.43-1.59-.28-2.24.15-.23-.68-1.46-.21-2.24-.78-.29.36-1.09.43-1.4.78-.49-.13-.82-.49-1.4-.15V3.76C134.63,3.55,135.24,3.63,135.66,3.61ZM111.88,29.47c.05,0,1.51-.83,2,0C112.27,29.49,109.9,29.62,111.88,29.47Zm178.2-6.59c.62-.09,2.09-.39,2.24.16A2.13,2.13,0,0,1,290.08,22.88ZM227.14,5.64c-.42.25-1.6.23-1.4-.31C226.24,5.42,226.9,5.41,227.14,5.64ZM70.76,2a9.69,9.69,0,0,0-2.8.31c-.5-.09-1.16-.08-1.4-.31C67.68,2,69.92,1.57,70.76,2Zm29.93,1.72c-2.73.08-6.18.45-8.11.47-.17.28.82.65,0,.79-.17-.49-1.2-.48-1.4-.94-1.31.32-2.14.12-4.2.15-.23-.44.4-.4.28-.78C92,3.63,96.65,3.21,100.69,3.76Zm-14.27.16a8.68,8.68,0,0,1-3.35-.31C84.91,3.64,85.6,3,86.42,3.92Zm-26-.47c0-.34,1-.07,1.39-.16C62,3.67,60,3.93,60.41,3.45Zm97.91,1.88a11.18,11.18,0,0,1-4.2-.47,3.4,3.4,0,0,0,2-.78c-1.29.41-3.41.32-3.63.94a15.61,15.61,0,0,0-2-.32c-.15-.6.71-.64.84-1.09,2.21,0,3.73-.11,4.75.31-.24-.92,2.29-.28,3.36-.47C158.07,4,158.67,4.58,158.32,5.33Zm30.77-.47c0-.1,0-.19-.28-.16-.74.17-2.15.3-2.51-.15.32,0,.3-.25.27-.47,1.41-.32,1.4.24,2.52,0C188.73,4.47,189.72,4.84,189.09,4.86ZM160,4.7c.35.07.57.2.56.47-.37.16-1,.16-1.4.32a.62.62,0,0,1,.28-.63c-.22,0-.55,0-.56-.16.35,0,1.37-.45,1.4-.15C160.11,4.55,160,4.57,160,4.7ZM105.45,5a15.77,15.77,0,0,0-4.2-.16c1-.66,2.33-.29,3.92-.47C105.11,4.69,105.49,4.73,105.45,5Zm166.45.15c-.79,0-1.92.14-2-.31C270.58,5,272.12,4.58,271.9,5.17Zm-18.47.94c.07-.33,2-.2,2.52.16-1.69-.21-2.59.94-3.64.16.34,0,.8,0,.85-.16-.57-.23-2-.31-.85-.63-.46-.21-1.77.06-1.67-.47.29-.35,1.76-.06,2.52-.15C253.39,5.57,252.35,6,253.43,6.11Zm-70.49-.47c-.49.15-1.4.06-1.68.32-.12.43,1,.14,1.12.47a11.82,11.82,0,0,1-5-.16c.76-.14-.28-.55-.28-.78C179.52,5.32,180.9,5.06,182.94,5.64Zm21,.32c-.22,0-.33.13-.28.31-.42,0-1-.06-1.12.16-.2.42,1.32-.12,1.12.31-1-.16-.55.53-1.12.63-.36-.32-1.57-.17-1.68-.63.68.1,1.44.32,1.4-.31-.58.34-.9-.14-1.4.15-.15-.43-1-.5-1.12-.94a4.05,4.05,0,0,0,1.68-.15c.11.27-.41.4,0,.47.95.06.44-.7,1.68-.47C202.64,6,204,5.58,203.92,6Zm-10.35-.32a24.11,24.11,0,0,1,4.19,0A11.35,11.35,0,0,1,193.57,5.64Zm5.59.94c-.84,0-2.17.18-2.23-.31,1.43.28,1.12-.42,1.95-.47A.7.7,0,0,0,199.16,6.58Zm-4.19,0c-.21-.54-.84-.1-1.4,0,.05-.23-.1-.58.28-.62,0,.35.7-.21,1.4,0C195.2,6.19,195.35,6.53,195,6.58Zm19.3.16c-1.55,0-3.33.51-3.92-.31C211.39,6.79,213.87,5.83,214.27,6.74Zm22.38.63c-.17,0-.33,0-.28.15s.33,0,.28.16c-1.71.28-1.28-.64-2.52-.63s-1,.67-2.23.63c.28-.78,1.77-.89,3.35-.94C235,7.62,236.34,7.05,236.65,7.37Zm37.21-.32c.63.22-2.81.3-3.08,0A7.11,7.11,0,0,1,273.86,7.05Zm-89.25.47a6,6,0,0,1-2.51.16C182,6.87,184.59,6.54,184.61,7.52Zm-4.19.32c-.19-1.17-1.64,0-2.23-.63,1.82-.38,2.2.11,3.35-.31C182.19,7.31,181,7.62,180.42,7.84Zm80.29-.16c-.58-.1-1.95.25-1.68-.31h1.68Zm-4.2.31c.4-.3,1.36-.28,2-.47.06.51-1.22.26-1.12.79-1.9-.52-4.37.21-6.43.47,0-.65,1.25-.3.55-.94.7-.21,1.17.46,1.4,0,0-.21-.49-.15-.56-.32.67-.2.53,0,1.4-.15,0,.23-.09.57.29.62.21,0,.55,0,.56-.15s-.5-.15-.56-.32A2.8,2.8,0,0,1,256.51,8Zm16.23,1.26c-.44,0-.2-.35,0-.47-.53,0-.62-.18-1.12-.16s-.89.24-.84.63c1.52-.46,1.22,1,2.24,1.25-1.13-.15-1.64-.65-2.8-.78.65-.63-.67-1.08-1.12-1.1.35-.06.57-.2.56-.47a18.42,18.42,0,0,0,3.08,0c-.2-.71-1.61.17-1.68-.47a10.1,10.1,0,0,1,3.08.16C271.81,7.89,273.91,9,272.74,9.25ZM267.14,8c-.41.24-1.44,0-1.4-.47A1.41,1.41,0,0,1,267.14,8Zm-25.45.79c.42-.37.35-1.57,1.68-.94-.24.48-.79.37-.29.94C242.26,8.82,242,9,241.69,8.78Zm-4.76-1.1a4.24,4.24,0,0,0,2.52,0,.68.68,0,0,0,.28.78c-1.56-.39-2,.3-3.64,0,.31-.65,1.08-.33,1.68-.15,0-.16.23-.19.28-.32C237.41,8,237,8,236.93,7.68Zm11.19,1.1c-.13-.55,1.1-1.15,1.68-.79C249,8.2,249.49,8.65,248.12,8.78ZM240,8.31a5.45,5.45,0,0,1,1.68.15C241.43,8.68,239.7,9.16,240,8.31Zm37.2.62c-1.51-.12-2.26.2-3.63.16C273.36,8.07,276.72,8.5,277.21,8.93Zm-8.95-.31c-.12.61-.31.56.28.94-.72-.09-1,.06-.84.47-1.41-.12-.46-1-1.4-1.1a7.69,7.69,0,0,0-1.95.32C265.06,8.42,266.3,8.49,268.26,8.62ZM269.94,10c-1.3.19-1.34-.62-.28-.62C269.6,9.7,270,9.75,269.94,10Zm33,.63h-1.12c-.08-.41.1-.68.84-.63C302.76,10.24,303.07,10.33,303,10.66Zm-34.69,0a.56.56,0,0,0-.28-.47c1,0,.8.17,1.68,0C269.77,10.66,268.75,10.51,268.26,10.66Zm-27.69-.47a10,10,0,0,1,2.51.16c.37.38-.82.65,0,.78.73-.33.24-.61.56-.94,1.39.08,1.5.06,2.52.16-.37.48.08.44,0,1.09C243.33,12.09,242.34,11.32,240.57,10.19Zm-.28.63c-.57.31-.55-.07-1.12-.16-.06.17-.31.24-.56.31v-.62C239.6,10.26,240.05,10.48,240.29,10.82Zm-2,.47a1.7,1.7,0,0,1-1.12-.32c.58,0,.07-.69.84-.62C238.37,10.53,238.37,10.9,238.33,11.29Zm-67.42.94a8.64,8.64,0,0,1-2.52-.47c.22,0,.33-.13.28-.32,1.5.31,1.33-.38,2-.78C170.52,11.53,170.43,11.57,170.91,12.23Zm132.32,0c-1.36.1-1.15-.68-.84-1.1-.33,0-.79,0-.84-.16.5.09,1.65-.19,1.68.16C302.32,11.17,302.57,12.16,303.23,12.23Zm-45-.32c-1.81.36-2.28-.33-3.36-.15-.33-.71.65-.68,1.4-.79C256.44,11.53,257.51,11.61,258.19,11.91Zm43.36.16c.22,0,.55,0,.56.16a2.37,2.37,0,0,1-1.68-.32c1.25,0-.57-.8.84-.78C301.21,11.6,302.31,11.66,301.55,12.07Zm-51.47,0c-1.59.19-1.23-.89-.28-.94C250.12,11.31,250.12,11.68,250.08,12.07Zm3.35-.47H254c0,.39-.44.49-.84.63.08-.36-.07-.59-.56-.63-.16.45-1.32.64-1.4,0,1,.14,1.86-.61,2.51-.16C253.54,11.45,253.38,11.47,253.43,11.6Zm-94.55.63c-.43-.62,1-1,1.4-.63C159.23,11.48,160.09,12.43,158.88,12.23Zm15.66-.16c-.28-.25-2.35.69-2.79-.31a8,8,0,0,0,2-.16C173.62,12,174.51,11.77,174.54,12.07Zm-11.74,0c-1.08-.11-1.11-.2-2,.16C160.49,11.28,162.61,11.6,162.8,12.07Zm143.79,0c-.53-.07-1.69.21-1.4-.31h1.4Zm-83.37,1.57c-.95-.09-1.9-1.34-1.12-1.41C222.3,12.79,223.08,13,223.22,13.64Zm38-.63a1.21,1.21,0,0,1-1.11-.47c.23-.15,1.78-.33,2,0C261.85,12.71,261.08,12.59,261.26,13Zm-34.4.31a4.06,4.06,0,0,0-2,0c.45-.48.24-.61.56-.94.24.46.7-.2,1.4,0C226.54,12.88,226.83,12.74,226.86,13.32ZM169,14.11c-.28-.37-1-.51-.84-1.1a3.1,3.1,0,0,0,2.24-.47c-.15,0-.32-.13,0-.16C170.45,12.94,169.1,13.51,169,14.11Zm80-1.57h1.12C250.3,13.14,248.74,13.14,249,12.54Zm44.48.47c0,.88-2.15.14-1.4-.16C292,13.19,293,12.92,293.44,13Zm-127.29.47c-.75,0-1.34-.36-.83-.63C166.05,12.81,166.23,13.07,166.15,13.48Zm90.08,0c-1.09-.11-2.73.12-2.23-.47C254.43,13.34,255.93,13.08,256.23,13.48Zm-6.43.31c1.11.24-.54-.72.56-.78a8.85,8.85,0,0,0,2.51,1.41c0-.18-.49-.36,0-.47,1.26.24,1.34,1.13,2.24,1.57a3.2,3.2,0,0,1-1.68-.47c0,.15-.22.18-.27.31.72.2.53.52.27.94a9.18,9.18,0,0,0,1.4-.47c-.05.44,1.06.37.28.79.72.26,1-.19,1.4.15-.26.17-1,.05-.83.47a3.11,3.11,0,0,1,1.39-.16.6.6,0,0,0,.28.48c-.4.08-1.44-.19-1.4.15.52.69,2.41.87,1.68,1.41a3.5,3.5,0,0,1,2.52-.62c.08.63,1.25.65,2,.94-1.35.1-3.17.64-4.48.15,1.05.7-1.47.46-1.95.79.76.24,1.41.56,2.23.78a20.31,20.31,0,0,1,4.2-.78.73.73,0,0,0-.56.31c1.34.64,3.83-.32,4.75.31-.17.27-1.32,0-1.4.32.42,0,1-.06,1.12.15-.32,0-.3.25-.28.47-1.22-.32-1.75.55-2.24,1.1-1-.5-.85.12-2.51,0-.49-.09,0-.74-.56-.78-.28,0-.33-.13-.56-.16,0,.39,0,.76-.28.94h-4.76c.37-.83,2.29-.55,3.08-.78-.89,0-.45-.4-1.68-.47-.34-.51.91-.12.56-.63-3.29-.18-3.59-.06-5.32,1.1.58.09,1.07.24.84.78a18.37,18.37,0,0,1-3.91-.63c.5-.08,1.16-.08,1.4-.31-.88,0,.71-.45-.28-.47-.18.64-2.15-.05-1.4-.31.77.22,3.18,0,3.64-.47-.7,0-2.94.53-2.8,0,.37-.53,3.15.3,3.08-.47,1,.68,1.75-.41,2.24.47-.12-.38.51-.34.28-.79a8.54,8.54,0,0,0-3.36-.31c-.21-.48.76-.3.56-.78-.42,0-1-.06-1.12.15.09.21.4.3.28.63-3.28.14-6.48,0-4.76,1.88a31.42,31.42,0,0,0-3.36-.16c0-.7-1.77-.47-2.79-.62,0,.17.41.24,0,.31,0-.1,0-.18-.28-.16s-.33,0-.28-.15a7.44,7.44,0,0,1,4.19-.63c.35-1.49,2.38-1.24,3.64-.94.45-.78-.41-1.33-1.4-1.72.76-.15-.74-.3-.28-.79,1.4.21.49,0,.28-.47.54-.29.7,0,1.4,0-.1-.44,1.07-1,.28-1.25H247c.09.36.55.64,0,.94-.95-.49-1.08,0-2.24.15.47-.58-.16-.24-.28-.78,1,.07,1.84.28,2.24-.16-.77-.19-.6-.91-1.4-1.09,0,.09,0,.18-.28.15,0,.25.72.13.56.47-1.31.11-1.23-.56-2-.78.44,0,1,0,.84-.31,1.05-.17.8.39,1.68.31v-.47h1.4c.67.93,2.29.85,3.08,1.41C250.87,14.33,248.9,14.2,249.8,13.79ZM235,13c.57.05.55.42,1.12.47,0,.39-.52.48,0,.78-1.34.08-.61-1-2-.94,0,.39,0,.76.28.94-.78-.58-1.23.43-2-.31C234,13.82,232.77,13.16,235,13Zm-4.75,2.66h-1.4c-.45-.61,1.21-.05,1.11-.47s-1.16-.28-2-.31c.31-.9-1-.9-.84-1.72a2.56,2.56,0,0,1,1.68.15c-.94-.16-.44.49-.56.79.4,0,.47-.26.84-.32-.2.43.58.31.83.47C229.24,14.91,230.44,14.89,230.22,15.67Zm-60.43-2.5c.9.13.58.13,1.12-.16C172.13,13.43,169.58,13.83,169.79,13.17Zm53.15,1.56c.06-.31-1.25-.63-.28-.94C222.73,14,223.74,14.52,222.94,14.73Zm-46.43-.15c.4-.65,1.83.15,2.23.47a6.8,6.8,0,0,1-3.07-.47c0,.21-.14.34-.29.47,2.08-.05,1.79.68,2,1.41a1.71,1.71,0,0,1-1.4,0c0-.39.44-.49.57-.79a2.65,2.65,0,0,0-1.13.16c-.24-.23-.22-.61-1.12-.47-.37-.44,1.49-.39.56-.63-.36.16-1,.16-1.39.32-.25-1.11,1.6-.18,1.95-.79.12-.37-1.27.09-.84-.47h.84C175.45,14.23,176.27,14.24,176.51,14.58ZM172,14c.05.44-1.05.36-.28.78-1.24-.2-.4-.64-1.68-.62.22,0,.32-.13.28-.32C171.2,13.68,171.37,14,172,14Zm85.32.94c.43.37.09.77,1.12.47-.3.59.69.45.56.94-.71-.49-3.16-.12-3.64-1.1a1.65,1.65,0,0,0,1.12-.31c-.47-.31,0-.2,0-.63-.65,0-3,.13-1.95-.31.77.37,2.21-.21,3.63,0C258.48,14.93,257.73,14.42,257.35,14.89Zm-31.61.63c-.41-.71.2-.8-1.4-.47-.52-.3,0-.4,0-.79a3.19,3.19,0,0,0,2.24,0C226.38,14.73,226.5,15.37,225.74,15.52ZM256,14.58v.31c-.76,0-.56.26-1.12,0v-.31C255.39,14.32,255.19,14.59,256,14.58Zm-23.22.47c.17.69-1.51.54-1.11-.16C232.14,14.86,232.23,15.07,232.73,15.05Zm-50.07.15c.21,0,.32-.13.28-.31h1.12C184.25,15.28,182.86,15.55,182.66,15.2Zm-.28,0a2.5,2.5,0,0,1-1.68-.15C181.32,15,182.22,14.69,182.38,15.2Zm8.67.79c-.76.77-2.8-.11-1.68-.79C189.71,15.59,190.49,15.73,191.05,16Zm70.5-.16c1.1,0,2.37.33,3.08-.31C264.33,16.58,262,16.61,261.55,15.83Zm-248.42,0c-.12.3-.1.68-.84.63.22-.4-1.09-.72-.28-.94C12.26,15.79,12.64,16.12,13.13,15.83Zm253.45,0c.27.63-1.67.63-1.4,0C265.88,15.81,266.05,15.54,266.58,15.83Zm-88.12.94c.52-.91,2.22-.46,3.92-.47-.35.83-1.73.35-2.52.16C179.07,17,179.93,16.24,178.46,16.77Zm-8.67.94a2.72,2.72,0,0,0-2.24.16c.6-.81-.52-.46-1.4-.63a1.08,1.08,0,0,1,.56-1.1,9.32,9.32,0,0,0,1.12.79c.5-.9,2.36.38,2.8-.79C171.12,17.1,169.4,16.81,169.79,17.71ZM240,18.5c1.42-.47-.17-.72.84-1.42-.66-.38-.52.24-1.4.16.58-.6-1.17-.68-.28-.94a2.47,2.47,0,0,0,2,.16c.08,1,1.87.92,1.68,1.72.33,0,.31-.25.28-.47h1.4c-.52.49-.41.86-.56,1.26-.93-.28-1.24.07-2.51,0-.35-.51.9-.12.56-.63C241.13,18.2,240.26,18.83,240,18.5Zm-74.42-1.88c-.22.54.42.6.29,1.09a2.6,2.6,0,0,1-1.12-.15C165,17.21,164.92,16.71,165.59,16.62Zm12.87.46c.36,0,.39-.2.84-.15-.14.81-1,.51-2.24.47C176.74,16.67,178.2,16.63,178.46,17.08Zm-3.35.94c-1.17-.06-.77-1-.85-1.25A3.39,3.39,0,0,1,175.11,18Zm-11.19-.31c-1.32.67-2.69-.41-3.92.16,0-.53.82-.59,1.4-.79C161.77,17.91,162.88,17.36,163.92,17.71Zm-149.11,0c-1.06.08-1.75-.07-2-.47C13.69,17.3,14.56,17.33,14.81,17.71Zm186.59,1.1c-1.36.71-2.26-.14-3.36.47.36.06.58.2.56.47-2.94.16-1.86-1.24-1.95-1.73C199.13,18.07,199.69,18.62,201.4,18.81ZM185.17,19v-.63c.6-.21.83.08,1.68-.16C186.68,18.66,186.23,19,185.17,19Zm-8.11-.47c.74.39-.77,1.23,1.13,1.09-.61-.43.15-.65-.29-1.09.9.13.87-.25,1.4-.32.69.21-.5.47.28.63s1.42-.86,2-.47c-.26.54,1.53.44,2.24.78-.74-.4.38-.31,1.12-.31-.88.74.75,1.3-.84,1.88-.39-.1,0-.6-.56-.63,0,.32-.77.2-.56.63.36.41.58.49,1.4.31-.18.43-.77.62-1.68.63-.6-.81-2.29-.14-3.36-.47,1-.4-.44-.92.28-1.41.54.17.39.72.84.94-.06-.3.32-.35.28-.63-.69.25-.82-.53-.28-.47.13.5,1.21.31,1.4,0,.39.26.23.81.84.94.2-.58-.48-.67-.28-1.25-1.31-.6-2.84-.13-3.92,0,0,.7-1.27.65-1.68,1.1-.35-.6-1.14,0-2-.32C175.42,19.05,175.31,18.58,177.06,18.5Zm-3.91.78c.31-.45,1.36-.49,2.23-.63C175.24,19.54,174.22,19,173.15,19.28Zm122,0a5.62,5.62,0,0,0-2.8-.16V18.5C293.11,18.74,295.8,18.73,295.12,19.28Zm-124.77-.16c-.95.29-3.37.4-2.52-.31.74.32,1,0,2-.16C169.86,18.88,170.25,18.92,170.35,19.12ZM193.57,19c.53,0,.62-.18,1.12-.16C195.08,19.51,193.4,19.66,193.57,19Zm77.49.15c.67.1,2-.19,2.24.16C272.51,19.33,271.13,20,271.06,19.12Zm-27.42.47c-.77-.48-2.48.49-2.79-.31C241,19.61,243.53,18.69,243.64,19.59Zm-39.72,1.1c-1.5-.13-2.58-.9-3.36-.16-.28-.41-.64-1.4.56-1.41C201,20.1,203.33,19.78,203.92,20.69Zm-43.36.16c-.69-.39.21-.68,0-1.26a3.06,3.06,0,0,0,1.4-.15C161.86,20,161.61,20.46,160.56,20.85Zm133.44,0c.35-.58,1.76-.89.28-1.26.73,0,1.2.06,1.12.47C294.74,20.22,294.93,20.85,294,20.85Zm-2-.16c-.76-.23-1.9.23-2.24-.47,1.11.14,1.51.2,1.4-.63H292A.65.65,0,0,1,292,20.69Zm-142.39-.16c0,.1,0,.19.28.16,1-.27,2.09-.5,2.52-1.1,1.58.33,1,.57,1.12,1.26-1.29,0-1.43.66-2.52.78-.15-.54-1.51-.41-2.24-.63C148.69,20.05,151.14,20.28,149.65,20.53Zm123.37,0c-1,.07-1.65-.12-1.68-.62a2.23,2.23,0,0,0,.84-.16C271.91,20.32,273.54,19.82,273,20.53Zm26-.47v.63c-.44.23-1.31.21-1.68.47.62.17.75.62,1.39.78-.78,0-4.22.24-3.92-.47,0,.26,1.73.26,1.69,0a.73.73,0,0,1-.56-.31c1.84.14,1-1.2,2.51-1.25C298.54,20,298.71,20.09,299,20.06Zm-135.4,1.1c.13-.49-.86-.35-.57-.94.83-.13,1.14.27,2-.31C165,20.55,164.12,20.76,163.64,21.16ZM24.6,21a6.56,6.56,0,0,1-2.52-.31c.3.8-2.64,0-3.35-.16,0-.42.46-.31,0-.62C20.77,20.38,23,20.67,24.6,21Zm170.65-.47c.9-.36,1.22-.08,1.95-.47C198.11,20.88,195.87,21.22,195.25,20.53Zm-37.77.94c-.3-.14-.09-.57-.84-.47,0-1.46,2.1.06,3.36-.31v.47C158.88,21.56,157.86,20.68,157.48,21.47ZM207,20.69c-.29,0-.57.68-.84.16.24-.57-.29.64-1.4.31.24-.5-.25-.59-.56-.78C205.17,20.46,206.85,20.14,207,20.69Zm-29.38.47c.13-.45.59-.71,1.4-.78C178.86,20.81,178.73,21.25,177.62,21.16Zm-45.32-.47c-.32,0-.3.25-.28.47-.42,0-1,.06-1.11-.16,1.85.14-.43-.42.55-.62C131.54,20.7,132.22,20.14,132.3,20.69Zm71.06,1.41c-1.05-.38-2.61-.08-3.36-.31.23-.41,1-1.33,1.68-.94-.33,0-.3.24-.28.47.7,0,.87.24,1.4.31.12-.35.6-.5.84-.78C203.22,21.37,203.75,21.83,203.36,22.1Zm-4.2-1.1a.64.64,0,0,0,.28.63,7.9,7.9,0,0,1-2.79,0C196.82,20.72,197.69,21,199.16,21Zm73.3.32c-.86,0-.67.56-1.68.47C271.17,21.52,272,20.61,272.46,21.32Zm-129,.62c-1.42-.07-.32-.33-.27-.78-.4,0-1.08,0-.57-.16.41.09,1.45-.18,1.4.16C143.33,21.36,143.17,21.48,143.49,21.94ZM27.4,21.32c-1.48-.09-1,.42-.56.78-1.09-.4-2.27,0-2.8-.47a6.51,6.51,0,0,0,2.8-.63C26.84,21.21,27.33,21.15,27.4,21.32Zm2,1.72a1.75,1.75,0,0,0-1.68-.16c-.29-.2-.28-.57-.56-.78,1.25.29.72-.14.28-.47.85.1,1.12.52,1.68.78,0-.2.49-.14.56-.31-.56-.16-1.2-.27-1.4-.63C29.86,21.55,30.25,22.67,29.36,23Zm148-.78h-1.12c0-.58.41-.4,1.12-.32,0-.19.09-.37.56-.31C178.25,22.14,177,21.75,177.34,22.26Zm94.56.31a.65.65,0,0,0-.28-.63h1.68C273.25,22.38,272.81,22.61,271.9,22.57Zm-109.1-.16c0,.58-1.4.54-1.68.16A2,2,0,0,1,162.8,22.41Zm13.71.79c.13-.49-.67-.64.27-.79C177.23,22.65,177.75,23.22,176.51,23.2Zm-20.43-.32c.28,0,.34-.12.56-.15.09.41-.38.51-1.12.47,0-.39-.05-.76.56-.79ZM297.36,23a2,2,0,0,1-1.4-.31C296.36,22.49,297.42,22.57,297.36,23ZM173.15,24.29c-1.72,1,.06-1.57-2.52-1.09,1.09-.61,2.09-.52,3.63-.47.16.55-1,.38-.83.94.37.16,1,.15,1.11.47-.87.18-.67-.25-1.11-.32-.41.14-.89.24-.84.63C172.87,24.45,172.92,24.33,173.15,24.29Zm97.35-1.41a9.34,9.34,0,0,1,2.24-.15c.06.29-.32.34-.28.62-1.14-.2-1.41.33-.84.63-1.13.15-1.76.48-2.24-.16.32.33-.44.75-.56.32.44,0,.19-.35,0-.47,2,.11,1.52-.38,2.52-.63,0-.09,0-.18-.28-.16C271.06,23,270.57,23.08,270.5,22.88Zm-61.27,1.26c-1.35.18-3-.3-2.23-.79.58.42,1.33-.39,2.23-.31C208.72,23.73,209.68,23.68,209.23,24.14ZM249,23.51c.42,0,1.14-.58,1.4-.16C249.84,23.49,249.38,24.2,249,23.51ZM122.51,24c-1.12.05-1.66-.22-1.68-.78h1.4C122,23.64,122.63,23.6,122.51,24Zm-87.84-.63a16.78,16.78,0,0,1,4.2,0C37.73,23.89,35.23,24.56,34.67,23.35Zm130.09.94c-.34,0-2.58.23-3.64.32-.09-.37-.6-.68.28-.79,0,.19-.05.45.28.47-.36-.62.92-.32.56-.94h1.4C163.22,24.14,165.9,23.16,164.76,24.29Zm-12.31.16c-1.16-.16-2-.11-2-.63a3.52,3.52,0,0,1-1.68.32v-.47a2.74,2.74,0,0,0,2.24-.32C151.34,23.82,152.44,23.83,152.45,24.45Zm15.1-.16c-.56.15-2.31.32-2.23-.62.21,0,.55,0,.56-.16A2.76,2.76,0,0,1,167.55,24.29Zm-8.11-.47c.11.2.36.33.84.32a2,2,0,0,1-1.4,1.25c-.76-.65-1.64-.34-2.52-.78.54-.07.22-.61,1.12-.47.39.09,0,.6.56.63.58-.26.94-1.46,1.68-1.1C159.55,23.68,159.39,23.69,159.44,23.82ZM139,24.29a1.33,1.33,0,0,1,.56-.47c-.09.42,1.08.13.84.63-1.1.25-1.75-.07-2.52.16-.09-.22-1.27-.95,0-.94C137.93,24.07,138.31,24.28,139,24.29Zm-16,.79c.42-.19,1.25-.14,1.12-.63-.41-.36-.89.31-.84-.31,1.21-.71,7.28.15,5.88-.32,1.51-.11,1.89.4,2.79.63-.36-.21-.37-.58.28-.63.24.47.71-.2,1.4,0a.7.7,0,0,1,.28.79c-1.31,0-2.49.39-3.35-.32-.2.49-.85.27-1.12,0-.08,1-2.2-.06-2.52.79,1.33.05,1.84-.34,2.24.31-1-.34-1.82.76-2,0a3.69,3.69,0,0,0-.84.63h-2C124.73,25.3,123.57,25.37,123.07,25.08Zm-82.8-.63a.74.74,0,0,0-.56.32c-.71.06-1.7-.49-1.12-.63C38.54,24.58,40.31,24,40.27,24.45Zm95.95,0c.08.42-.58.41-1.12.47.07-.29-.31-.34-.28-.63C135.61,24.17,135.54,24.52,136.22,24.45Zm-92.6.94a26.75,26.75,0,0,1-2.8-.47c0-.18,0-.44.28-.47C41.65,24.81,43,24.73,43.62,25.39ZM157.76,27c-1.56.16-.56-.24-1.12-.47-.81.14-.31.23-.28.63-.82.14-1.81.1-1.12-.32.38.51.54-.7-.56-.31,0-.26.92-1.15-.28-1.1.06-.49.52-.75,1.4-.78C155.19,25.58,157.82,25.8,157.76,27ZM141,25.55c-1.2-.21-1.1.32-1.39.63h-1.4v-.63c1.24.12,1.79-.15,1.68-.78.4.08,1.44-.19,1.4.15C140.84,25,141,25.3,141,25.55ZM133.7,26c1.55.13,2.47-.91,3.64-.47C136.61,26,134.77,26.76,133.7,26Zm11.75.16a.77.77,0,0,0-.56.31c-.65.13-1.2-.55-1.4-.16.09.37,1.22.15,1.4.47a2.55,2.55,0,0,1-2.52-.78C142.75,25.52,145.15,25.19,145.45,26.18Zm15.67,0c.83,0,1.81-.86,2.24-.16C163,26.16,160.39,26.41,161.12,26.18Zm-19.3.47c.32,0,.79,0,.83.15-.92.27-1.7.05-2-.47a2.85,2.85,0,0,1,1.12-.15C141.92,26.4,142.15,26.44,141.82,26.65Zm-35-.16c.21.6-1.49.29-1.12-.16a2.1,2.1,0,0,0,.84-.15c.11.27-.42.4,0,.47C106.58,26.55,106.61,26.46,106.85,26.49Zm56.22.78c.42-.46-.31-.58.57-.78.09.52,1.22-.41,1.39.16C164,26.63,164,27.22,163.07,27.27ZM108.8,26.8c.66.05,1.21.16,1.4.47-.22,0-.32.13-.28.32-.49-.09-1.64.18-1.67-.16.36,0,.25-.27.55-.31C109.27,27.48,108.78,27.06,108.8,26.8Zm33.85,1.41c.08-.27-.78-.78,0-.94s3.49.44,4.76.32c-.09.63-3.4.32-2.8,0-.82-.15-1.81-.11-1.12.31,0-.09.23-.18.28,0C143.22,27.9,143.42,28.33,142.65,28.21Zm-83.36-.47c.08.32.75.31.84.63-2.63.79-5.4-.79-7,0,0-.23.1-.58-.28-.63,0,.35-1.19.07-1.68.16,0-.19,0-.45.27-.47C53.69,28,56.07,27.8,59.29,27.74Zm63.22.79c0-.5.72-.54,1.4-.63C123.86,28.34,123.42,28.57,122.51,28.53ZM108,28.68c-1.16.31-1.43-.44-2.52,0,0,.2.36.22.28.47-.9-.13-.58.41-1.12.47.24-.69-.34-1-.84-.47.4-.46-.23-.53.28-.94,1,.2,1.18-.38,2.24.16,0-.16.22-.19.28-.31-.22,0-.56,0-.57-.16A3.75,3.75,0,0,1,108,28.68Zm-21.26.47c-1.84-.24-3.48.84-5.6.32.17-.22,1.08,0,1.12-.32-.64.05-1,0-1.12-.31C82.18,28.37,86.22,27.75,86.71,29.15Zm.27,0a1.16,1.16,0,0,1,1.12-.78C88.83,28.79,87.81,29.13,87,29.15Zm81.41-.31c.85-1.06-3.46.21-3.91-.47-.7.55-3.29,0-2.8,1.25.06-.32,1.91-.91,1.68,0,.48-.14,1.5,0,1.4-.47a2.5,2.5,0,0,1-1.12.16c0-.34.7-.34,1.39-.31.33,0,.24.28.29.47.55-.26.35,0,1.11,0C165.28,28.85,168.37,28.31,168.39,28.84ZM305.75,7.52c1.58.87,3.86.22,7,.47A28.76,28.76,0,0,0,305.75,7.52Zm-26.58,5c1,.17,1.94.38,2.24.94.62-.56-1.43-1.45-2.8-.94a.7.7,0,0,0,.28.78C279.66,13.18,278.4,12.77,279.17,12.54Zm-49.79,5.17a4.63,4.63,0,0,0-3.08.16c.5.35,1.1.63.84,1.41.72.11,1,0,.84.78C229.65,19.32,227.51,18.32,229.38,17.71Zm21.26-.15c0,.55-.54.68.28.94.74.05-.27-.88.84-.63.68.1,0,.73-.29.78C253.13,19.19,252.53,17.23,250.64,17.56Zm-29.1.78c.44-.06-.24-.28.28-.32-1-.66-1.62.8-2.51.48.47.67-.47.88-1.68,1.09,1,.5,1.4,1.3,2.24,1.88.79.13.72-.22,1.39-.15.2-.43-1.32.11-1.12-.32.78,0,.26-.58.84-1.25a18.23,18.23,0,0,0,2.8.16c-.36.32-1.36.28-1.12.94,1-.13,1.08.23,2,.15.32-.33-.17-.61.56-.94.66.05.52.55,1.4.47.34-.47.3-.66-.56-.78,0-.18.51-.13.84-.16.24-.5-.44-.48-.56-.78a4.71,4.71,0,0,1-2.52.31c.31-.49.13-.41-.28-.78.07-.28.48-.36,1.12-.32-.49-1-1.62,0-2.52-.31-.08.42.59.41,1.12.47-.25.28-.67.46-.84.79-.67.06.16-.72-.84-.47-.49.32.21.3-.28.62-.86.12-.53-.43-1.39-.31C220,18.51,221.64,18.26,221.54,18.34ZM303,19.75c.12.38-.51.34-.28.78.79-.13.72.22,1.4.16-.24-.34-.72-.54-.56-1.1-.86.12-.82-.27-1.68-.15.32.19.24.32-.28.31C301.79,20.21,302.25,19.55,303,19.75Zm-82,3.92c-.59,0-1.73.3-2.79.31-.94-.14-.14-.29-.28-.78-1.37-.49-1.82,0-3.08.31,1,.51,0,.41-.84.63.79,1.7,5.2,2.21,7.55,1.72.33,0,.24.29.28.47.56-.26.36,0,1.12,0v-.47c1.13.16,2.42.21,2.52.94-1.11.61-1.37-.58-2.8-.31-.13.49.86.35.56.94.88.18.68-.25,1.12-.31a12.36,12.36,0,0,0,1.12,1.41c.68-.33.6-.23,1.68-.16-.12-.66-1.45-.65-2-1.1.11-.3,1.28,0,.84-.62h1.4c-.56-.37.07-.18.28-.47.21-.49-1-.2-.56-.79-2.27.41-.91-.34-3.36.32-.61,0-.12-.67-.28-.94-1.79,1.56-4.79-.66-6.71.31-.13-.49.35-.64.84-.79,1.08.35,2.29-.17,2.8,0C221.18,24.41,220.22,23.56,221,23.67Zm9.8,2c-.16.38-.66.57-1.12.78.11.45,1.64-.4,2,.16.37,0,.23-.4.28-.63,1.06.42.68-.12,2.23.16-.24-.28-.94-.49,0-.63-.21-.35-1.57-.06-2.23-.16-.55.24.48.66-.57.79-.23-.6-1.27-.75-1.67-1.26-.61,0-.13.56-.28.79a2.46,2.46,0,0,1,1.12-.16C230.18,25.87,230.19,25.88,230.78,25.71Zm17.34.47c.53-.49,1.42.13,1.68.31.46-.42-.19-.7,1.12-.78-1.11-.51-2.55.13-3.64.15.42.59.64.58,0,1.1a3,3,0,0,1,1.4-.16c-.2.74.39,1,.84,1.41.67-.7.85.22,1.68.32C250.13,27.43,248.94,27.38,248.12,26.18ZM268,25.86c0,.19.51.13.84.16,0,.74-1.8.45-2.52.78,1.71.89,3.31.18,5.6,0-.07-.48-1.4-.26-2.24-.31,0-.28.34-.33.28-.63C269.07,26.42,268.72,25.38,268,25.86ZM282,26c0-.24-1.32.08-1.68.16-.08.25.27.27.28.47-.73-.56-1.73-.11-3.08-.16.46.48,1.35.22,2,0,.05.55-1,.49-1.4.78-1-.22-1.72-.6-2.79-.78,0,.63-1.9-.1-3.08.16,0,.18-.06.27-.28.31.58.41.74.33.84.78,2.87-1.27,5.67.31,9.79,0-.25-.52-.63,0-1.12-.31,0-.18.51-.13.84-.16C282.13,26.65,281.1,26.33,282,26Zm10.91.78c.1.42,1.42.14,1.68.47C295.19,27.06,293.84,26.64,292.88,26.8Zm8.11.32c-.12-.24-.36.06-.84,0-.36.67.8.49,1.12.78C302.15,27.79,300.18,27.19,301,27.12Zm-28,.94a4.14,4.14,0,0,1-2.8-.79C270.41,28,271.39,28.73,273,28.06ZM39.15,27.43c-.25-.42-1.14.07-.84.47.24,0,.26-.06.28-.16.74,0,.22.61,1.12.47C39.72,27.93,38.28,27.68,39.15,27.43Zm97.91,2c-.82-.23.05-.52-.84-.79.85-.49,2,0,2.52-.47.48.21,1.1.33,1.12.79.4,0,.09-.47.56-.47-1.21-.68-3.12-.28-3.92-.94.69.62-.88.45-1.4.15a3.21,3.21,0,0,1-2.24.79c.49.44.74.14,1.68.15-.18.16-.64.17-.56.47,1,0,.92-.53,1.68-.62-.1.57-1,.71-1.68.94C134.7,29.56,135.45,29.29,137.06,29.47Zm168.69-1.41c-.71.38.56.35,1.12.47-.74.35-2.37-.13-3.36-.16,1.82.92,4.18.57,7,.94C309.12,28.88,306.26,28.45,305.75,28.06Zm-172.89.31c-.47-.49-1.3-.19-2.23-.16.15.52.23.69,1.12.47.12.34-.4.3-.84.32-.08.27,1.67.28.84.47C133.54,29.85,131.31,28.55,132.86,28.37ZM33,28.21c.41.19.38.75,1.12.32,0,.22,0,.44-.28.47.4,0,1.27.32,2.24.47-.74-.21-.7-.61.56-.47a4.63,4.63,0,0,0-3.92-.79A.15.15,0,0,0,33,28.21Zm64.63.32c.24.07.49.13.55.31.85-.78-2.2-.26-2.24.31C96.5,29,97.36,29.16,97.62,28.53ZM275.81,29c-.31-.09-1.63-.13-2.51-.32-.12.61-.31.56.28.94.88.08,1-.28,1.95-.15C275.51,29.25,275.49,29,275.81,29Zm33.58.47c1.45.48-.64.59-1.4.31,0,.41,1.7.4,2.51.31C310.18,29.86,310.26,29.39,309.39,29.47Zm-41.13.62a2.32,2.32,0,0,0-1.68,0,8.13,8.13,0,0,1,2.52.79C269,30.51,268.13,30.59,268.26,30.09Zm-85.6-7.83c-.89-.14-.87.24-1.4.31.07.59.61.92,2,.78C183,23,182.63,22.74,182.66,22.26Zm56.79,3.29c-.77.1-1.1.43-1.12.94a3.78,3.78,0,0,0,3.36-.31C241.26,25.79,239.39,26.21,239.45,25.55ZM214,26.18c-2.19.1-3.55.17-5.31.15.93.24.61.58.83.94a3,3,0,0,1,1.4.16c-.18.16-.64.16-.56.47,2.1,0,2,.05,4.48.16-.66-.45-.19-.63-.56-1.1-.67-.06-.61.29-1.4.16-.28-.48.62-.28,1.12-.32Z"/></g></g></svg>