<svg xmlns="http://www.w3.org/2000/svg" viewBox="0 0 305.05 41.68"><g id="Layer_2" data-name="Layer 2"><g id="Layer_1-2" data-name="Layer 1"><path d="M40,.84c0,.89-1.61-.11-1.6.62-1-.77-3.52-.15-4.61-1.22A37.38,37.38,0,0,0,40,.84ZM56.69.17c-.35-.34-2.17-.1-2.49.13C54.84.81,55.63,0,56.69.17Zm-23.87,1-.83,0c0,.68,1.18.42,1,1.22a2.52,2.52,0,0,1,1.39-.06C34.14,1.77,32.65,2.12,32.82,1.2Zm56.07-.12c1.6.21,4.37-.05,4.29.87.57-.55,2.38-.05,3.56-.55C94.42.94,90.52.44,88.89,1.08ZM56.81,3.43c-.47.19-.55.6-.43,1.11,1.16-.09,1,.85,2.3.61-.13-.3.18-.35.52-.39a3.73,3.73,0,0,1-1.26-1.2C57.49,3.56,56.89,3.7,56.81,3.43ZM32.68,4.66c-.54-.15,0,1-.51.38-.24,0-.26.09-.26.2s0,.24,0,.36C32.54,5.43,33.45,5.09,32.68,4.66Zm-12.2.62c1,.93-.07,1.6-.28,2.37.73-.08.87-.42.88.32,1.58-.31,2-.2,3.56-.55-.33-.63-.83-.06-1.69-.09,0-.37.7-.4,1.05-.6C22.81,6.25,22.13,5.4,20.48,5.28ZM96.83,2.12c3.44.18,1.75-1,0,0ZM26.19,6.44c-.82-.3-.47-.58-1.7-.28a1,1,0,0,0,.38.89c2.16-1.26,5.18,0,6.51-1.6C29.3,5.19,26.9,5.22,26.19,6.44Zm-7.4,1.1.09.72c.77.09.52-.38,1.07-.42A1.63,1.63,0,0,0,18.79,7.54ZM133,3.19c0,.49,1.53-.25,1.17.49.68,0,.57-.36,1.37-.25C135.32,2.83,133.86,3.22,133,3.19ZM16,9.86c.91.11.83-.33,1.35-.43C17,8.76,15.71,9.23,16,9.86ZM40.92,8.23c.61,1,4.79.25,6.14,0A42.29,42.29,0,0,0,40.92,8.23ZM36.63,9.72c.87.09,1-.24,1.65-.26C38,9,36.53,9.06,36.63,9.72Zm73.9-2.67c.36.3,1.34-.48,1.58-.8C111.31,5.85,110.81,6.65,110.53,7.05ZM5.47,12.75c-.69.29.31.93.43,1.25C6.63,13.68,5.79,12.92,5.47,12.75ZM185.88,4.86c-.27,0-.19.23-.23.37-.83.18-.85-.27-1.69-.09.07.21,0,.33-.23.38C183.83,5.65,187.15,5.52,185.88,4.86Zm2.27.25c.31.61,1.1-.1,2,.26C190.27,4.68,188.79,5.2,188.15,5.11Zm.45,1.43c2,.75,4.92-.17.85.14C189.23,6.69,189,6.43,188.6,6.54Zm-2.12,1c0,.49,2.94.5,2.78-.14C188.17,8.05,187.26,7.09,186.48,7.55ZM184,7.68c.31.35,1.11.33,2,.26C185.66,7.59,184.86,7.6,184,7.68Zm10.65.37c1.15-.55,1.52.27,2.49-.13C196.6,7.81,194.36,6.94,194.64,8.05Zm42.51-1.44a1.77,1.77,0,0,0,2.29.43A18,18,0,0,0,237.15,6.61ZM215,10.28c-.33-.65-.83-.07-1.68-.1C213.54,10.77,214.39,10.39,215,10.28Zm8-.41c-.25.68-1.51.15-1.9.46.37.31,1.46.07,2,.26C223.09,10.35,223.07,10.11,223,9.87Zm46.38-1.81c-.51,0-.55.2-.26.19-1.52.32.23.69.88.32C269.83,8.39,269.37,8.42,269.42,8.06Zm-44.1,2.24a.73.73,0,0,1,.34.52c.55-.82,1.21,0,2,.09-.19-.15-.38-.31,0-.36C227.25,10.14,226.26,10.24,225.32,10.3Zm10.84-.37c.19.15.37.3,0,.36a5.24,5.24,0,0,0,3.09.2A5.45,5.45,0,0,0,236.16,9.93Zm-6,1.39c.47.63,1.42.44,2.26.25C232.32,11,231,11.33,230.19,11.32Zm41.22,4.07c-.12-.41-1.23,0-1.38.08a5,5,0,0,0,3.39.37c-.68-.65-1.62.08-2.54-.24C270.87,15.43,271.2,15.45,271.41,15.39Zm32.76,3.24c-.44-.39-1.94,0-2.8,0C301.81,19,303.31,18.56,304.17,18.63Zm-22.36,2c-.73,0-.13.71-1,.6.25.4,1.56,0,2.24.07C282.93,20.88,281.89,21.14,281.81,20.67Zm7.39,1.08c-.95.34-1.54-.11-2.18.47-.06.51,1.5-.21,1.43.3C288.63,22.22,289.3,22.2,289.2,21.75Zm-5.14,1.35c1.55-.15,2.9.3,4.16-.21C287,23,284.42,22.43,284.06,23.1ZM281,25.25c-.07-.2,0-.32.23-.37-1-.11-1.37-.66-2.33-.79C279,24.91,280.1,25,281,25.25ZM279.54,25c-.85.11-1.38-.35-1.94.1,0,.4,1,0,1.4.11.27.6-.38.68-1,.78a4.63,4.63,0,0,0,2.78-.14C280.38,25.51,279.14,25.85,279.54,25ZM42.27,38.1c-1.3-.44-2.88.42-4.41.41C39.74,38.9,40.48,38.24,42.27,38.1ZM157,33.73a.83.83,0,0,0-.38,1.47c1.44-1,3,.52,5.36.45-.65-.47-.82-.08-1.71-.27C160.6,33.74,157.25,34.9,157,33.73Zm-34.85,2.49c-.75,1,1.87,1.06,2.94,1.31.88.09.27-.64,1.35-.43C125.43,36.47,123.28,36.72,122.13,36.22Zm165.09-7.65a2,2,0,0,0,2,.44C288.9,28.6,288.21,28.47,287.22,28.57ZM127.48,36.68c0,.76,2.38.8,3.12.38C130.25,36.41,128.7,36.67,127.48,36.68Zm167.87-7.8c-.43-.39-1.94,0-2.79,0A5.93,5.93,0,0,0,295.35,28.88ZM130.66,37.6c.28.65,2.05.15,3.1.21C132.87,37.23,132,37.81,130.66,37.6ZM288,30.16c.45.69-.86.41-.42,1.11.92-.11,1.17-.59,2.45-.49.38,0,.29.44.37.71a8.39,8.39,0,0,0,2.24.07c-.41-.21-.54-.87.16-.92C291,30.6,289.93,30.05,288,30.16Zm7-.17c.29.7,2.83.72,3.67.36C298,29.92,296.6,30,294.93,30Zm-174.12,9.2c-.61,0,0,.65-.17.92,1,0,.34-.82,1.6-.63C122,38.94,120.92,39.46,120.81,39.19Zm177.32-8.1c-.43-.39-1.94,0-2.79,0C295.77,31.45,297.27,31,298.13,31.09Zm-105,6.25c-.66.45.82.94,1.15.3C194.42,37.14,193,37.84,193.13,37.34Zm1.22.84-1.66.09c.06.2.52.12.85.14a.6.6,0,0,0-.21.55C193.62,38.67,194.45,38.69,194.35,38.18Zm37-1.15c.4.35.55.89,1.5.83a.77.77,0,0,0,.19-.74C232.17,37.3,232,37,231.32,37Zm-7.74.57a3.44,3.44,0,0,0,2.3.61A3.85,3.85,0,0,0,223.58,37.6Zm-.81.23c-.35-.4-1.75,0-2.52-.06A2.3,2.3,0,0,0,222.77,37.83Zm10.58-.18a6.58,6.58,0,0,0,2.58.6C235.76,37.11,234.76,37.59,233.35,37.65Zm5.82-.29c.09.39.75.35,1.43.29-1.23.37-1.1.44.6.33-.34-.21-.28-.36.23-.38C241,37.27,239.72,37.59,239.17,37.36Zm4,.34c2.08.85,3.41-.1,6.42,0C247.73,37.13,245.5,37.69,243.12,37.7ZM23.47,0c-.09.79,2,0,2.29.43C26.16.21,24.38,0,23.47,0ZM45.61,5.45c1.21.8-2-.5-2.61-.77-.06.28-.5-.14-.53.21,0,.74.73-.21.9.5-.48.67-2.45.19-3.31.34,0-.61.6-.9.36-1.65.87-.27.28.58,1.15.31-.29-.57-1.06-.77-2.3-.61.09.19.56.09.6.33-.18.54-.73-.2-1.39.07-.06-.25-.11-.51.21-.56-.45-.72-1.74.19-2.26-.24-.4.25,1.31,1.51-.66,1.48,1.1,1.32,2.37,1.31,4,1.07-.72,1.27-2.93-.22-3.88.19a.93.93,0,0,0-.38-.88c-1,0-.63.75-1.9.46-.13.56-.15.35.11.9-1.58,0-3.44.11-4.33,1.12-.69.07-1.34.11-1.43-.28-1.38.59,2.58.47.66.87.32.43,1-.3,1.94-.1-.08-.55.5-.73.7-1.12,1.24-.18,2.43.37,3.33-.17.11-.41-.56-.23-.62-.51,1-.18,1.11.33,2,.26,0,.45.06.87.41,1.07.5-.06.09-.62.46-.75.27,0,.32.47.07.54.08.39,1.18,0,1.68.09a.76.76,0,0,1-.34-.52,12,12,0,0,1,3.65.17c.21.42-1.72-.43-1.34.43,3.87-.28,6.57-.88,8.68.29.79,0,.47-.64,1.62-.44-.07-.21-.52-.13-.85-.14,1.18-.63,1.78.87,3.16.74-6.09,0-12.19,2.43-18,1.46,0,.3.08.6.11.9-1.67-.58-2.88,0-4-.52,1.54-1.19,5.53-.15,6.49-1.78-1.3-.15-1.7.25-2.8-.05-.1-.39.16-.58.77-.58.14-.49-1.29.2-1.15-.3-1.17.72-2,1.55-4,1.29C29.48,9.14,30,9.66,28,9.8c0,.32.39.36.37.7-.73.09-.94-.2-.92-.68-1,1.4-3.55.3-5.12,1.53-.52-.45.09-.81-1.22-.84,1.23-.28,2.51-.51,3.82-.74-.69-.42-2.24.23-3.67-.36-.84.23.81.14.87.32-1.29.47-3.49.1-4.28,1.49,0,.69.24,0,.85.13s-1,1,.41,1.07c0,.38-1.21.12-1.34.43s.55.37.38.89c1.33-.3,1.89-1.47,3-.51-.43-.69.06-.92-1-1.22.22-.41,1.41.09,1.45.47.94-.42-.54-.62-.92-.68,0-.34.92-.16,1.07-.42.83.16.44,1.23,1.28,1.39-1.83.92-4.66,1.81-6.89.71a.78.78,0,0,1,.34.53c-1.85.37-3.54-1.08-4.74.06-.42-.2-.5-.67-.94-.86-.65,0-.77.35-1.64.26A3.53,3.53,0,0,1,9.48,16c-.69-.83-1.62-2.39-3.54-1.64.73.88,1.85,1.87,1.22,3.21-.08.51-1.29.4-1.87.64.84,1.55,2.57-.64,4.18,0-.08.35-.83-.26-.49.56-3,.57-6.2,0-8.83.82a1.59,1.59,0,0,0,1.15.3c-.17.35-.81.17-.21.55-.06.25-.68.19-1.09.24,1.88,1.53,5.81,1.49,7.88,2.87a1.36,1.36,0,0,1,1.34-.43C7.7,24.44,8.34,25.64,11,25.9c-.08.28-.36,0-.83,0,.42.88,1.33.74,1.31,1.57,0,.47-.51-.22-1.11.06,0,.66,1.87-.11,1.49.83,1.93-.06,3.82.63,5.33.27-.12-.23-.52-.26-.61-.51,4.57-.24,8.26,1.3,12,.47.73-.16.58.35.9.51.51-.59,2-.11,3.58-.37-.13-.88-1.69-.68-2.37-1.15.27-.35,1-.44,1.3-.79.93.41,1.49,1.1,2.93,1.12-.18,1.88-5.65,1.88-7.66,1.3-.88.31.53.48.64.69C26,30,26,29.2,23.38,29.45c1.81.84,4.24.92,6.53.93,0-.18-.05-.36-.07-.54.81-.09.9.37,1.71.28a.67.67,0,0,1-.51.39c2.34.24,6.1,0,8.51,1.2-.21.46-1.09-.2-1.94.1.9.5,1.44,1.26,3,1.3,0,.21-.49.18-.81.22.75.21,1,.77,2,.81-1.63.44-2.35-1.5-4.36-1.42,1-.59-.68-.42-1.7-.27a5.4,5.4,0,0,0,1.17.48c0,.47-.51-.22-1.11.06,2.77,1.59,6.16,2.28,9.56,3-.86.64-3.56.26-3.45,1.45,2.33-1.2,5.35-1,7.1-1.27.59,0-.21.64-.76.58.68.37,1.73-.48,3-.33.4.55,1.44.61,1.56,1.37-.83.11-.55-.63-1.19-.67A15,15,0,0,1,45,37.6c.21,1,5.77-.15,7.07.73-.2.15-1.65.7-1.39.07-.61,1.12,3-.06,3.58-.36.81.19-.82.41-.44.93.77-.08.69-.63,1.3-.79,1.57.24,3.49.23,4.57.85.33-.6.46-.53,1.62-.44-1-1.11,1.17-.18,1-1.14.85.38,4.73.4,4.4-.58.72-.1.94.2.92.67.8-.87,4.29.39,4.63-1,.92.63,2.86.45,3.13.57.43-.4,3.69-.58,5.06.29,12.85-.23,23.2,3.2,36.87,2.66-.38-.63-2.05-.28-2.86-.58.22-.67,2.72-.67,1.24-1.33,2.73,0,4.18.71,6.21.59.3-1.17-2.44-.33-1.56-1.37-2.1.32-2.72-1.42-5.19-1.37,2-.53,4.81.15,6.82-1.26-.33-.2-.83-.29-.66-.87-1.61-.29-3.53-.34-4.59-1a17.91,17.91,0,0,1,6.47.4c.17.5-1.06,1.07-1.3.79-.38.5,2.36.3,2.88.76.23.57-.45.58.11.9,5.45,0,8,2.18,13.38,2.23.59.53,1.38.91,1.6,1.73,4.32.09,6.94.28,10.95.53-.14.75-1.16,0-1.62.45.07.34.93.08.89.5-3.74.08-5.32-.55-8.19-.86.55.57,1.92.51,2.11,1.34a61.22,61.22,0,0,0,6.68-.15.7.7,0,0,1,.47-.75c.23,0,.3.17.58.15,0,.21-.49.18-.81.22a70.23,70.23,0,0,0,10.9.18c-.07-.15-.3-.17-.32-.35,4.47.07,7.46-.8,12.78-.47-4.86-.68-13.55-.17-17.35-.39,8.51-.54,18.28-.9,27.2-1.2,2.92-.1,5.75.78,8.36-.06a6.11,6.11,0,0,0-3.45-.91c0-.25.67-.19,1.08-.24a48.79,48.79,0,0,0-10,.33c-.07.86,1.35-.74,1.7.27-1.11.6-3.08,0-5.54.29-.83-.12-.35-.26-.37-.71l-1.38.07c-.06.44,1.25-.16.89.5-2.78.67-6.22.14-9.17.28a5.84,5.84,0,0,1,5.82-.29,19.2,19.2,0,0,0,2.2-.3c-2.14-1.09-4.89-.65-6.64-1.84-.27.74-1.61.62-2.73.5-.32.69,2.09.69.11.91.3.66,1,0,1.43.29-1.26,2-4.38-1.13-6.72-.21-.66.11.05-.82-.9-.49.83,1.07-2.69,0-3.37-.2-.1-.5.62-.55,1.33-.61-1.25-.23-1.88-.93-3.46-.91.32-.81,1.73,0,2.45-.49-1.68-.53-2.9-.2-4.55-.68.87-.55,1.64-.24,3-.33a2.67,2.67,0,0,0-2.81-.22c-.33,0-.28-.32-.35-.53.79-.46,2.86-.21,4.14-.39a.78.78,0,0,1-.34-.53c4,1.23,9.45-.1,13,1.52,3.93-.53,7.49.84,11.8.67.27.55-.72.39-.45.93,4.17-.35,7.7.67,10.82-.55.06-.31-.26-.33-.6-.33,0-.38.7-.4,1-.6,1.43.34,2,.12,3.91,0,.28-.29.26-.48-.09-.73.39-.28,2.2.24,1.85-.82,2.31-.5,2.49.6,3.23,1.29,1.17.33,3.77-.88,4,.53,1.64-.14,2.94,0,3.43.73,3.16-.11,5.13-1.82,8.54-1,.28-.8,1.16-.24,1.85-.82,1.34.88,3.49,1.16,5.74,1.34-.15.42-1.57.14-1.3.8,2.75,0,4.42.28,6.47.39-.47.44.51.49.68,1.06.94.07.4-.4.21-.56a4.1,4.1,0,0,0,2.31.61.65.65,0,0,0,.21-.56c1,.33,3.29-.4,3.42.56.7-.5,3.55-.17,3.86-.38.43.13,0,.27.36.71,1.2-1.1,2.88.41,4.65-.78.84.11-.61.3-.19.73,1,.1,1.41-.24.77-.58.86.09,1-.24,1.64-.27,1.1,0,2,1,3.12.39-.1-.19-.57-.1-.6-.33a8.84,8.84,0,0,0,2.49-.13c-1.12.82,1.06.69,2.07,1-.88.48-3.36-.64-3.28.53,2.09-.29,4.12.12,5.55-.28,2.1,1.75,4.85-.25,7.87.51,4.76-1.28,10.13-1.15,17.32-2.15-2.19-1.6,7.29.1,8.47-1.52a4.25,4.25,0,0,0,4.12-.57c3.18,1.19,7.44-1.21,11.9-.79-3.57-.92-7.44.59-9.88-1-2,.38-6.52.17-8.62.26,0-.38.7-.4,1-.6-.09-.39-.74-.35-1.43-.29.27.54-.2.67-.15,1.1a2.82,2.82,0,0,1-1.4-.11,4.6,4.6,0,0,1,1.76-1.54c-.3.13-2.42.38-2-.63a7.52,7.52,0,0,1-2.78.14c.66.37-.41.63-.42,1.11-1.53.18-2.21-.29-2.63-.95-.43.5-2.25.3-3.88.19,1-.71,3.74-.5,5.48-.82.13-.6-2-1.18-.73-1.41-.44-.24-1.27-.61-1.7-.28.24-.88-2-.58-2.42-1.51-1.69,1.17-3.08-.45-4.5-.31.13.7-2.32.45-2-.27a1.56,1.56,0,0,1-2.22.11c.86,0,1.95-.31,3.28-.52-.28-.89-.5-.56-1.43-.29-.15-.71,1.28-.53,1.26-1.16-1.29.13-2.3,0-2.58-.59-1.43.95-.45-.68-2-.62,5.47-.79,12.74,1.44,16.72-.13-2.39-.61-6-.21-8.77-1,1.33-.79,3.08.44,3.87-.38-.14.65,1.3.65,2,.08.23.15,0,.8,1.19.66-1.44-.63,1-.54.66-1.48-1,.25-.84-.41-1.7-.27,0,.88-.32-.27-.86-.14-.78,0-.63.54-1,.77-.94-.45-3.85.45-5.36-.45-.49.17-1.09.29-1.32.61-.32-.08.11-.88-.43-1.25.77,0,1,.3.54-.21.47-.07,1.79.32.6.34-.07.35,1.29.2.8-.22a1.53,1.53,0,0,1,1.16.3c.06.5-.81-.39-.52.39a8.38,8.38,0,0,0,4.16-.21c-1.72-.85-6.95-.33-7.74-1.79-.54.43-3,.63-3.12-.39-1.9.72-4.69-.56-7.32-.53.45-.58,1.35.14,2.22-.11-.69-.9-2-.14-3.39-.37,0-.22-.1-.32-.32-.35.57-.57,1.06-.15-.09-.72,4.62-.27,6.93,0,10.58-.18-.17-.55-4.35-.71-5.12-.83-.69-.29-.45-.86-2.3-.6.08.46,1.11.2,1.19.66-.45.58-1.34-.14-2.22.11-.58-.85-2.84-1.08-4.26-.69.35.74,1.51-.27,2,.44-.9.42-2.73.67-3.35,0-.16-.42,1.28,0,.77-.58-1.16.55-1.51-.15-2.54-.23.75.73-2,.06-2.52-.06-1,.72,1.59.36,2,.62-2.57.83-6.85-.72-10.69-.72,7.11-.82,9.88-.05,17.28-.15-.47-.52-3,.24-3.18-.93,0,.95-2.27.26-3.82.74-.71-.24-.69-.72-.94-.86-.74.85-3.1.3-5.54.28a.65.65,0,0,0,.21-.56c-.64.49-1.12-.15-2-.08.05.36.79.19.65.7-1.72.18-1-.59-1.78-.82-.4.22-.62.55-1,.78,0-.72-2-.77-3.46-.92.42-.49,1.47.19,2.5-.12.14-.78-3.57-.46-2.07-1,0-.39-1,0-1.41-.11.41.41,0,.34.39.89-.45.08-.5-.15-.86-.14-.79.31,1.11.19,1.18.49a5.54,5.54,0,0,1-2.8,0c-.41,0,.25-1-.94-.86-.15.18-.56.7.34.53-.84.82-2.49-.23-4.43.22-.15-.47,1.57.09,1-.6-1.23,0-2.06-.26-3.37-.19-.36.67,1,.06.9.5-1.08.58-2.18-.52-3.35,0-.18-.19-.11-.71-.94-.86-.69.06,0,.61.08.72a6.71,6.71,0,0,1-3.45-.91c.15-.19.61-.22.49-.57-.4-.16-1.06-.12-1.18-.49-.45.73-1.49,1.07-.64,1.67-1.25.36-1.73-.79-3.65-.18.25-.2.51-.39.77-.58a25.58,25.58,0,0,1-6.65.34c-.28-.55.93-.27.44-.93-1.16-.1-3.36.59-3.39-.37-1.2,0-1,.47-2.73.5.18-.54.39-.23,1.09-.24,0-.52-.09-1-.94-.86-.07.31.26.33.6.33-.07.41-1.5.25-1.41-.11-.46.14-.13.43.32.35-.12.45-1.39.17-1.15-.3.25.86-1.19.36-2.22.11.09-.67,1.46.41,1.06-.42-6-.12-13,.11-19.16-1.56-.32,0-.19.34-.21.55-.6.06-.9-.1-.9-.5a12.66,12.66,0,0,1-6.68.16c1.46.55-2.25.48-1.77,1.54-.49,0-1.67-.4-1.93.1a4.43,4.43,0,0,0-2.91-.94c-1.57,1.25-4.79.5-7.51.2-.56.13-.55.31-.21.55-4,.19-8.85-.39-12.29-.1.12.83,2.05.28,2.86.58-1.3.4-3.42-.28-5.31-.09,0-.25.67-.19,1.08-.24.74-.06-2.19-.6-1.66.09-4.69-.74-11.51-.68-16.86-1-.61-.8,1.08-.3.73-1-7.65-.11-11.12.58-18.39.21-.31-.56.36-.58.74-.76-1-.38-2,.61-2.73.5-.13-.86,2.41-.23,2.09-1.2A16.71,16.71,0,0,1,101,7c.44-.54,2.31-.28,2.39-1a30.67,30.67,0,0,1-9.32,1.38.83.83,0,0,1-.65-.69c-1.08,0-4.88.66-5.35-.45a5.37,5.37,0,0,0,3.35,0c-.55-.57-1.12-.2-1.94.1-.32,0-.18-.18,0-.18-1.17-.58-3.11.64-3.92-.17-5.94,1.92-13.75.9-20.67,2.14-1.12-.3-2-.81-3.39-.37-1,.08-1-.56-1.76-.64-2.16.63-3.07-.58-5-.1.36-1,3,.17,3.26-.72-1.85-.42-4.8,0-5.72-1.15,1.65-.29,2.29.84,4.48.13-.66-.61-2.44-.37-2.41-1.51-.32.46-1.06-.15-1.09.23-.17.6.94.21,1.18.49-2.5.56-8.27-.67-3.24.89.09.45.15.88-.45.93C51,5.5,46.76,6.64,45.61,5.45ZM9.81,16.34c0,.43-.42.56-.15,1.1-1.15-.19-.83.44-1.62.44-.61,0-.65-.42-.67-.87.4-.28,1.27-.3,1.6-.62-.2-.25-1.07,0-1.15-.31.53,0,.59-.23,1.09-.23C8.8,16.32,9.1,16.49,9.81,16.34Zm40,19.38c1-.53,2,.36,2.77-.14-.3.71,1.92.5,1.22.85A14.42,14.42,0,0,1,49.8,35.72Zm106.85,2.2c-2.5.46-2.51-.2-4.29-.87,1.17,0,1.44-.5,2.5-.13C154.16,37.46,157,37,156.65,37.92Zm-107-31a2.76,2.76,0,0,1-2.26-.25C48.23,6.34,49.4,6.26,49.68,6.88ZM169.12,9.34c-.78-.19-1.81-.19-2.56-.41C166.86,8.84,169.18,8.54,169.12,9.34Zm9.78,2.41c-1.3.75-3.92-.08-5.66-.62a5.62,5.62,0,0,0,2.75-.32c-2.2-.16-4.6-.18-5.72-1.17,2.87,0,2.76-.57,5-.25,1.18.81,2.71,2.17,4.42,2a.86.86,0,0,0,.66.87c0-.15.21-.22.53-.21,0,.19-.07.46-.25.19C180,12.6,178.18,12.48,178.9,11.75Zm25.83-.95c-1.06-.27-1.88.3-2.26-.25C203.32,10.56,204.6,10.24,204.73,10.8ZM16.24,23.46c-1-.05-.54.69-2.15.65-.15-.69-1.65-1.5-2.31-.61-.34-.2-.83-.28-.66-.87,2.94.36.83-.12,4.16-.21C15,23.23,16.27,22.84,16.24,23.46Zm-3.47,3.62c1.05-.37-1.46-.69-.41-1.07.3.23,1,.19,1.17.49a2.1,2.1,0,0,0,.79-.41,8.37,8.37,0,0,1-2.66-1.31c1.76,0,2.5.85,3.77,1.26-.35.42-.7-.19-.81.22.36.25.44.72.94.86a7.29,7.29,0,0,1,2.82.22C16.74,27.87,14,26.92,12.77,27.08Zm17.66-1.62c-.94.19-3.69.23-4.5-.32C27.32,24.72,29.65,24.81,30.43,25.46Zm7.07.73c-.64.09-1.39.25-.77.58-1.84.13-1.29-.57-2.07-1-1.28-.09-2.55-.08-3.93-.17C32.49,24.35,36.05,25.6,37.5,26.19ZM21.2,27.56c-.84-.09-2,.05-2.29-.43.69.33,1.53-.42,2.24.07C20.82,27.25,21,27.41,21.2,27.56Zm-4.95.61c-1.14-.29-2.12.35-2.84-.4C14.28,28,15.87,27.61,16.25,28.17ZM256.39,15.79c.11.34-.26.42-.19.74.45-.08.78.21.32.35a2.55,2.55,0,0,0-2.28-.43c-.08-.49.42-.39-.09-.72A8,8,0,0,1,256.39,15.79ZM180,23.48c-.73.47-1.88.33-3,.88a8.12,8.12,0,0,0-2.86-.58c.52-1.26,3,.18,4.1-.75-.93.24-2.15-.31-1.47-.65C177.82,22.8,179,23.12,180,23.48ZM40.19,30c.08.81-.61.27-1,.6a.72.72,0,0,1,.47-.75C39.69,30,39.87,30.09,40.19,30Zm142.68-6.15-2.5.12C180.35,23.22,182.45,23.74,182.87,23.89Zm84.39-3.57c-.5-.14-1.49.09-1.45-.46a3.57,3.57,0,0,0,2.47-.32C268.63,20.19,267.06,19.76,267.26,20.32ZM182,26.1c0-.18-.05-.36-.07-.54,3.68.24,6.63,1,11,.9,1.46-.67,5,0,6.74.38-.21.05-.3.17-.23.38-.49.19-1-.5-1.11.05.42.47.48,1.21,1.28,1.39-1.28,0-.82-.51-1.36.25-.22-.36-1.41,0-1.2-.67,0-.38.79.23.79-.4-.78-.12.46-.69-.64-.69-.11.38-.63.55-.42,1.11-1.44.18.67-.78-.39-.89-.39.17-.33.6-.45.93-.68.23-1.39-.48-1.66.08a4.64,4.64,0,0,0,2,.09c-.37.84-.24,1.23,2.39,1.33.17.46.9.5,1,1-1.31-.59-.24.54-2.46.48-.87-.2,0-.51-.92-.67.35.52-.57.35-1.06.41-.61-.95-2.93-1-4-.52,0-.6.1-1.18,1-1.32,0,.85,2.6.68,2.81.22-.36,0-.29-.3-.59-.33-.57.43-1-.27-1.71-.28-.31-.57.88-.29.74-.76a10.13,10.13,0,0,1-3-1.48c-.06.47-.77.58-.71,1.12s.83.16.9.5a31.54,31.54,0,0,1-4.5-.32c.73.8,2.29.2,3.71.72-.19.79-.07.7.43,1.25-1.88.14-2.05-.38-4.2-.15-.23-.89.82-.15,1-.6a3.6,3.6,0,0,0-1.73-.45c-.3-.33.76-.65-.08-.73-.36,0-.36.26-.81.23-.06-.68-1.27-.49-1-1.41-1,.25-.94-.33-1.45-.46-.38.41-2.37.5-2.82-.22.71-.36.63.76.85.13-1.46-.27-3.45-1.36-5.09-.64.27-.94-1.34-.44-1.26-1.21A44.61,44.61,0,0,1,182,26.1Zm78.36-2.7c-.18-.41-2.44-.23-1.5-.83C259.32,22.77,261.08,23,260.38,23.4Zm3-.7c.43.14.91.23.92.68-1,0-2.44.28-3.07,0-.51-.63.89-1.05,1.32-.61C261.92,23.38,262.9,22.85,263.36,22.7ZM49.25,35.75c-1.7-.26-2.82.25-3.7-.54C46.73,35.44,48.45,35.24,49.25,35.75ZM265.9,25.29c-.83.18-1-.13-1.68-.1-.05-.3.16-.47.49-.56C264.85,25.05,265.62,25,265.9,25.29Zm-2-.08c-1.08.1-1.93,0-2.28-.43C262.76,24.66,263.69,24.68,263.94,25.21Zm-49.4,4.5c.4,0,.5.28.88.32s.35-.25.81-.22c.37.54,2.2.8,1,1.4-.08-.14-.26-.2-.58-.15-.14-.3.36-.48-.06-.54-.1.33-.31-.06-.58-.15.16.3-1.94.41-2.52-.06a4.81,4.81,0,0,0,1-.6c-.34,0-.2-.19,0-.36a13.41,13.41,0,0,0-3.6.19c-.4-.83-.7-.79.1-1.46.17.4,1.38,0,2,.08.35.85,2.07.65,2.67,1.32.35,0,.35-.25.81-.22C216.62,30.24,214.69,29.07,214.54,29.71ZM61.86,36.2a5.25,5.25,0,0,1-2-.26C60.06,35.82,61.8,35.62,61.86,36.2Zm-2.6,1.58c-1.68-.17-4.79-.29-4.87-1,.38.5.29-.31,0-.36,2.51.16,3-.71,5.27-.27-1.09,0-1.62,0-1,.6-1.78.26-2.4-.27-3.33.17,1.37.52,2.5,0,3.95.34,0-.22,0-.43.51-.38C60,37.4,58.77,37.12,59.26,37.78Zm211.26-8.91c.1.76-1.95.31-2.22.11A4,4,0,0,1,270.52,28.87ZM253.79,29c-1.81-.59-5.74.44-7-.55,1.52,0,3,.18,3.86-.38-1.4,0-1.33-.32-2.79,0,0-1.05,3-.63,3.33-.17,1.32-.94,3.26-.6,5-.43,3-1.05,6.49.32,11.15,0,1.21,1.08,4.13-.44,6,.79a5.44,5.44,0,0,0-2.41.84c-1-.92-2.45-.28-4-.7.34-.09.54-.26.49-.57-2.52.19-5.25-.28-8.3.6.39.56-.38.46-.47.75,1.6,0,3.07-1.18,5-.43-.77.95-3.73.53-5.2.81-.73-.39.37-.36.17-.92C257,28.54,254.21,28.37,253.79,29Zm-13.1.12a37.45,37.45,0,0,1-5.27.27c-.51-.74,1.44-.1,1.33-.61-.56.13-2.09.05-1.16-.31.34.5,1.29,0,1.37-.25C237.38,29.55,240.27,28.05,240.69,29.11Zm4.14-.39c-.61.13.37.27-.21.56-.75,0-.59-.28-1.11,0-.12-.51-.15-1,.72-.94C244.27,28.63,244.74,28.53,244.83,28.72ZM232.59,29c-.2.74.52.78,1,1-.85,0-2.13.31-2.26-.25C233.58,29.54,230.24,29.24,232.59,29Zm13.69.21c-.71.09-1.2,0-1.17-.48.35,0,.35-.25.81-.23A.85.85,0,0,0,246.28,29.19Zm-3.09-.2c-.65.42-1.77.54-2.24-.07C241.92,28.79,242.49,28.56,243.19,29Zm8.22,1c-1.23-.05-3.11.39-3.91,0,1.58-.29,0-.21-.08-.72C248.88,29,250.11,29.68,251.41,30Zm27.15-1.56c0,.5-1.7.52-2.47.31C276.31,28.18,277.83,28.32,278.56,28.46ZM114.83,38.23c-1.06-.09-1.29.29-2.19.29-.31-.85-2.54-.72-3.42-.55.18-.59-.94-.2-.92-.68A15.8,15.8,0,0,1,114.83,38.23Zm162.71-9a8.57,8.57,0,0,1,1.64-.27C279.64,29.53,277.58,29.51,277.54,29.24ZM272.17,31c-.91,0-.74.6-1.3.79-1.62,0-2.22-.25-3.37-.19C268.05,30.93,271.1,30.53,272.17,31Zm2.65,3.49c.21-.17,1.72-.47,1.94-.09C276.47,34.67,275.08,35.1,274.82,34.45Zm-3.22,1.08c-4.47-.32-7.82,1.09-11.37.58.25.32.84.08.34.52a13.45,13.45,0,0,1-2.6-.77A90.56,90.56,0,0,1,271.53,35C271.07,35.09,271.62,35.21,271.6,35.53Zm-15.28.59c-.32.27-1.62.4-1.68-.09C255.49,36.05,256,35.48,256.32,36.12Zm-2.49.13c0,.72-2.48.42-2.52,0A7.1,7.1,0,0,1,253.83,36.25Zm14.48-.19c-.46-.56,1.61-.54,1.65-.27C269.3,35.82,269.18,36.15,268.31,36.06ZM115.88,5.15c1.88,0,4.31.61,5.89.24C120.37,5.37,117.65,4.86,115.88,5.15Zm71.63,1.62c-5.78,0-9.47.24-15.32.24A64.31,64.31,0,0,0,187.51,6.77Zm54.7.13c-.4.18.11.27-.19.74.59,0,.72-.17,1.09-.24C243.14,7,242.28,7.23,242.21,6.9Zm22.17,1c0-.16-.13-.16-.3-.17s-.27-.06-.3-.16c-.32,0-.19.34-.21.55a2.63,2.63,0,0,1-1.41-.11C261.67,8.53,264.06,8.4,264.38,8Zm-7,0c.24.61,2.08,0,2.57.42C260.47,8,258.47,7.8,257.4,7.94Zm-27.86,2.69c1.3.45,3.49.23,4.83.66C233.18,9.73,232,10.45,229.54,10.63Zm34.21,3.7c-.21.69.66.55.94.86C265.05,15.16,264.58,14.12,263.75,14.33ZM20,29.43c-.53-.11,2.2.65,3.09.21C22.68,29.12,21.17,29.42,20,29.43ZM267.59,23c-.55.24.8.68,1.47.65C269.17,23,267.84,23.43,267.59,23Zm5.46,1.36c-.42-.23-1.26.74-2.73.5-.12.27,1.13.38.34.52a34.67,34.67,0,0,0,5.85-.11c-1-.8-2.54,0-3.95-.34C272.51,24.65,272.71,24.48,273.05,24.39ZM279.91,28c.94.51.37.67-.2.73-.13.63,1.16.18.94.86,2.44-.27,3.33-.1,5.81-.47C285.21,28.08,282.46,27.87,279.91,28Zm-100.8,8.75c1.43,0,4,.53,6.72.2A23.1,23.1,0,0,0,179.11,36.78ZM283.52,21c-.25.68.41.86.45,1.43.77-.19.75.22,1.41.11.25-1.1,3.17-.4,3.71-1.64A49.08,49.08,0,0,1,283.52,21ZM123.41,37.61a.75.75,0,0,0-.45.93c1.57.19,3.18-.33,4.25.51.32.69-1.18.36-.7,1.13l2.77-.15c.42-.38-.05-.23-.09-.72,2.7.45,6.18.3,9,.63C137.21,37,126.7,39.76,123.41,37.61Z"/></g></g></svg>